Rubik-BoldItalic.ufo
<glyph name="quotedbl" format="2">
  <advance width="517"/>
  <unicode hex="0022"/>
  <outline>
    <contour>
      <point x="112" y="408" type="curve" smooth="yes"/>
      <point x="194" y="408" type="line" smooth="yes"/>
      <point x="220" y="408"/>
      <point x="231" y="424"/>
      <point x="236" y="440" type="curve" smooth="yes"/>
      <point x="313" y="674" type="line" smooth="yes"/>
      <point x="320" y="696"/>
      <point x="312" y="710"/>
      <point x="293" y="710" type="curve" smooth="yes"/>
      <point x="141" y="710" type="line" smooth="yes"/>
      <point x="122" y="710"/>
      <point x="109" y="696"/>
      <point x="107" y="674" type="curve" smooth="yes"/>
      <point x="84" y="440" type="line" smooth="yes"/>
      <point x="82" y="424"/>
      <point x="86" y="408"/>
    </contour>
    <contour>
      <point x="367" y="408" type="curve" smooth="yes"/>
      <point x="449" y="408" type="line" smooth="yes"/>
      <point x="475" y="408"/>
      <point x="486" y="424"/>
      <point x="491" y="440" type="curve" smooth="yes"/>
      <point x="568" y="674" type="line" smooth="yes"/>
      <point x="575" y="696"/>
      <point x="567" y="710"/>
      <point x="548" y="710" type="curve" smooth="yes"/>
      <point x="396" y="710" type="line" smooth="yes"/>
      <point x="377" y="710"/>
      <point x="364" y="696"/>
      <point x="362" y="674" type="curve" smooth="yes"/>
      <point x="339" y="440" type="line" smooth="yes"/>
      <point x="337" y="424"/>
      <point x="341" y="408"/>
    </contour>
  </outline>
</glyph>
<glyph name="two" format="2">
  <advance width="704"/>
  <unicode hex="0032"/>
  <guideline x="350" y="176" angle="0"/>
  <guideline x="400"/>
  <guideline x="1015"/>
  <outline>
    <contour>
      <point x="13" y="0" type="curve" smooth="yes"/>
      <point x="589" y="0" type="line" smooth="yes"/>
      <point x="604" y="0"/>
      <point x="619" y="12"/>
      <point x="622" y="27" type="curve" smooth="yes"/>
      <point x="654" y="179" type="line" smooth="yes"/>
      <point x="657" y="194"/>
      <point x="648" y="206"/>
      <point x="633" y="206" type="curve" smooth="yes"/>
      <point x="422" y="206" type="line"/>
      <point x="430" y="211" type="line"/>
      <point x="578" y="300"/>
      <point x="682" y="379"/>
      <point x="705" y="490" type="curve" smooth="yes"/>
      <point x="736" y="632"/>
      <point x="636" y="714"/>
      <point x="454" y="714" type="curve" smooth="yes"/>
      <point x="282" y="714"/>
      <point x="132" y="616"/>
      <point x="97" y="465" type="curve" smooth="yes"/>
      <point x="94" y="453"/>
      <point x="102" y="443"/>
      <point x="114" y="443" type="curve" smooth="yes"/>
      <point x="302" y="443" type="line" smooth="yes"/>
      <point x="320" y="443"/>
      <point x="336" y="447"/>
      <point x="347" y="466" type="curve" smooth="yes"/>
      <point x="357" y="482"/>
      <point x="372" y="517"/>
      <point x="413" y="517" type="curve" smooth="yes"/>
      <point x="448" y="517"/>
      <point x="445" y="496"/>
      <point x="441" y="477" type="curve" smooth="yes"/>
      <point x="428" y="418"/>
      <point x="304" y="344"/>
      <point x="63" y="193" type="curve"/>
      <point x="51" y="185" type="line"/>
      <point x="22" y="167"/>
      <point x="16" y="139"/>
      <point x="14" y="131" type="curve" smooth="yes"/>
      <point x="-8" y="27" type="line" smooth="yes"/>
      <point x="-11" y="12"/>
      <point x="-2" y="0"/>
    </contour>
  </outline>
</glyph>
<glyph name="colon" format="2">
  <advance width="322"/>
  <unicode hex="003A"/>
  <outline>
    <contour>
      <point x="86" y="350" type="curve" smooth="yes"/>
      <point x="260" y="350" type="line" smooth="yes"/>
      <point x="275" y="350"/>
      <point x="289" y="362"/>
      <point x="293" y="377" type="curve" smooth="yes"/>
      <point x="327" y="541" type="line" smooth="yes"/>
      <point x="331" y="556"/>
      <point x="321" y="568"/>
      <point x="306" y="568" type="curve" smooth="yes"/>
      <point x="132" y="568" type="line" smooth="yes"/>
      <point x="117" y="568"/>
      <point x="103" y="556"/>
      <point x="99" y="541" type="curve" smooth="yes"/>
      <point x="65" y="377" type="line" smooth="yes"/>
      <point x="61" y="362"/>
      <point x="71" y="350"/>
    </contour>
    <contour>
      <point x="12" y="0" type="curve" smooth="yes"/>
      <point x="186" y="0" type="line" smooth="yes"/>
      <point x="201" y="0"/>
      <point x="215" y="12"/>
      <point x="218" y="27" type="curve" smooth="yes"/>
      <point x="253" y="191" type="line" smooth="yes"/>
      <point x="256" y="206"/>
      <point x="247" y="218"/>
      <point x="232" y="218" type="curve" smooth="yes"/>
      <point x="58" y="218" type="line" smooth="yes"/>
      <point x="43" y="218"/>
      <point x="28" y="206"/>
      <point x="25" y="191" type="curve" smooth="yes"/>
      <point x="-10" y="27" type="line" smooth="yes"/>
      <point x="-13" y="12"/>
      <point x="-3" y="0"/>
    </contour>
  </outline>
</glyph>
<glyph name="J" format="2">
  <advance width="698"/>
  <unicode hex="004A"/>
  <outline>
    <contour>
      <point x="288" y="-10" type="curve" smooth="yes"/>
      <point x="490" y="-10"/>
      <point x="602" y="73"/>
      <point x="641" y="258" type="curve" smooth="yes"/>
      <point x="730" y="673" type="line" smooth="yes"/>
      <point x="733" y="688"/>
      <point x="723" y="700"/>
      <point x="708" y="700" type="curve" smooth="yes"/>
      <point x="179" y="700" type="line" smooth="yes"/>
      <point x="164" y="700"/>
      <point x="150" y="688"/>
      <point x="147" y="673" type="curve" smooth="yes"/>
      <point x="115" y="524" type="line" smooth="yes"/>
      <point x="112" y="509"/>
      <point x="121" y="497"/>
      <point x="136" y="497" type="curve" smooth="yes"/>
      <point x="433" y="497" type="line"/>
      <point x="384" y="266" type="line" smooth="yes"/>
      <point x="371" y="205"/>
      <point x="344" y="185"/>
      <point x="308" y="185" type="curve" smooth="yes"/>
      <point x="275" y="185"/>
      <point x="266" y="198"/>
      <point x="258" y="225" type="curve" smooth="yes"/>
      <point x="253" y="247"/>
      <point x="246" y="257"/>
      <point x="224" y="257" type="curve" smooth="yes"/>
      <point x="20" y="257" type="line" smooth="yes"/>
      <point x="8" y="257"/>
      <point x="-4" y="247"/>
      <point x="-7" y="235" type="curve" smooth="yes"/>
      <point x="-37" y="78"/>
      <point x="143" y="-10"/>
    </contour>
  </outline>
</glyph>
<glyph name="R" format="2">
  <advance width="722"/>
  <unicode hex="0052"/>
  <guideline x="738"/>
  <guideline x="1044"/>
  <outline>
    <contour>
      <point x="33" y="0" type="curve" smooth="yes"/>
      <point x="229" y="0" type="line" smooth="yes"/>
      <point x="244" y="0"/>
      <point x="259" y="12"/>
      <point x="262" y="27" type="curve" smooth="yes"/>
      <point x="303" y="218" type="line"/>
      <point x="344" y="218" type="line"/>
      <point x="389" y="27" type="line" smooth="yes"/>
      <point x="391" y="18"/>
      <point x="399" y="0"/>
      <point x="426" y="0" type="curve" smooth="yes"/>
      <point x="631" y="0" type="line" smooth="yes"/>
      <point x="643" y="0"/>
      <point x="655" y="10"/>
      <point x="658" y="22" type="curve" smooth="yes"/>
      <point x="659" y="27"/>
      <point x="658" y="29"/>
      <point x="657" y="33" type="curve" smooth="yes"/>
      <point x="583" y="261" type="line"/>
      <point x="654" y="301"/>
      <point x="713" y="367"/>
      <point x="732" y="457" type="curve" smooth="yes"/>
      <point x="764" y="608"/>
      <point x="670" y="700"/>
      <point x="478" y="700" type="curve" smooth="yes"/>
      <point x="182" y="700" type="line" smooth="yes"/>
      <point x="167" y="700"/>
      <point x="152" y="688"/>
      <point x="149" y="673" type="curve" smooth="yes"/>
      <point x="12" y="27" type="line" smooth="yes"/>
      <point x="9" y="12"/>
      <point x="18" y="0"/>
    </contour>
    <contour>
      <point x="343" y="408" type="line"/>
      <point x="365" y="514" type="line"/>
      <point x="438" y="514" type="line" smooth="yes"/>
      <point x="471" y="514"/>
      <point x="478" y="485"/>
      <point x="473" y="459" type="curve" smooth="yes"/>
      <point x="467" y="432"/>
      <point x="447" y="408"/>
      <point x="416" y="408" type="curve" smooth="yes"/>
    </contour>
  </outline>
</glyph>
<glyph name="asciicircum" format="2">
  <advance width="492"/>
  <unicode hex="005E"/>
  <guideline x="350" y="595" angle="0"/>
  <outline>
    <contour>
      <point x="126" y="595" type="curve" smooth="yes"/>
      <point x="192" y="595" type="line" smooth="yes"/>
      <point x="205" y="595"/>
      <point x="218" y="595"/>
      <point x="233" y="602" type="curve" smooth="yes"/>
      <point x="334" y="644" type="line"/>
      <point x="417" y="602" type="line" smooth="yes"/>
      <point x="430" y="595"/>
      <point x="443" y="595"/>
      <point x="456" y="595" type="curve" smooth="yes"/>
      <point x="522" y="595" type="line" smooth="yes"/>
      <point x="532" y="595"/>
      <point x="539" y="601"/>
      <point x="541" y="611" type="curve" smooth="yes"/>
      <point x="542" y="616"/>
      <point x="541" y="621"/>
      <point x="539" y="624" type="curve" smooth="yes"/>
      <point x="453" y="746" type="line" smooth="yes"/>
      <point x="443" y="760"/>
      <point x="435" y="765"/>
      <point x="420" y="765" type="curve" smooth="yes"/>
      <point x="300" y="765" type="line" smooth="yes"/>
      <point x="285" y="765"/>
      <point x="275" y="760"/>
      <point x="259" y="746" type="curve" smooth="yes"/>
      <point x="121" y="624" type="line" smooth="yes"/>
      <point x="117" y="621"/>
      <point x="114" y="616"/>
      <point x="113" y="611" type="curve" smooth="yes"/>
      <point x="111" y="601"/>
      <point x="116" y="595"/>
    </contour>
  </outline>
</glyph>
<glyph name="grave" format="2">
  <advance width="360"/>
  <unicode hex="0060"/>
  <outline>
    <contour>
      <point x="193" y="595" type="curve" smooth="yes"/>
      <point x="340" y="595" type="line" smooth="yes"/>
      <point x="350" y="595"/>
      <point x="357" y="601"/>
      <point x="359" y="611" type="curve" smooth="yes"/>
      <point x="360" y="616"/>
      <point x="359" y="621"/>
      <point x="357" y="624" type="curve" smooth="yes"/>
      <point x="283" y="746" type="line"/>
      <point x="272" y="763"/>
      <point x="265" y="765"/>
      <point x="250" y="765" type="curve" smooth="yes"/>
      <point x="54" y="765" type="line" smooth="yes"/>
      <point x="42" y="765"/>
      <point x="33" y="757"/>
      <point x="31" y="745" type="curve" smooth="yes"/>
      <point x="30" y="740"/>
      <point x="31" y="736"/>
      <point x="33" y="733" type="curve" smooth="yes"/>
      <point x="155" y="612" type="line" smooth="yes"/>
      <point x="164" y="603"/>
      <point x="172" y="595"/>
    </contour>
  </outline>
</glyph>
<glyph name="e" format="2">
  <advance width="621"/>
  <unicode hex="0065"/>
  <outline>
    <contour>
      <point x="263" y="-10" type="curve" smooth="yes"/>
      <point x="448" y="-10"/>
      <point x="553" y="94"/>
      <point x="567" y="145" type="curve" smooth="yes"/>
      <point x="571" y="158"/>
      <point x="563" y="167"/>
      <point x="550" y="167" type="curve" smooth="yes"/>
      <point x="361" y="167" type="line" smooth="yes"/>
      <point x="345" y="167"/>
      <point x="339" y="165"/>
      <point x="325" y="153" type="curve" smooth="yes"/>
      <point x="311" y="142"/>
      <point x="304" y="135"/>
      <point x="292" y="135" type="curve" smooth="yes"/>
      <point x="263" y="135"/>
      <point x="257" y="156"/>
      <point x="266" y="196" type="curve" smooth="yes"/>
      <point x="266" y="198"/>
      <point x="267" y="199"/>
      <point x="267" y="201" type="curve"/>
      <point x="565" y="201" type="line" smooth="yes"/>
      <point x="580" y="201"/>
      <point x="594" y="213"/>
      <point x="598" y="228" type="curve" smooth="yes"/>
      <point x="604" y="258" type="line" smooth="yes"/>
      <point x="635" y="405"/>
      <point x="573" y="530"/>
      <point x="377" y="530" type="curve" smooth="yes"/>
      <point x="206" y="530"/>
      <point x="75" y="438"/>
      <point x="36" y="266" type="curve" smooth="yes"/>
      <point x="35" y="264"/>
      <point x="35" y="261"/>
      <point x="34" y="259" type="curve" smooth="yes"/>
      <point x="-5" y="72"/>
      <point x="88" y="-10"/>
    </contour>
    <contour>
      <point x="294" y="326" type="line"/>
      <point x="294" y="327" type="line"/>
      <point x="303" y="371"/>
      <point x="321" y="390"/>
      <point x="347" y="390" type="curve" smooth="yes"/>
      <point x="373" y="390"/>
      <point x="383" y="371"/>
      <point x="374" y="327" type="curve"/>
      <point x="374" y="326" type="line"/>
    </contour>
  </outline>
</glyph>
<glyph name="braceright" format="2">
  <advance width="474"/>
  <unicode hex="007D"/>
  <outline>
    <contour>
      <point x="166" y="776" type="curve"/>
      <point x="161" y="776" type="line"/>
      <point x="149" y="776"/>
      <point x="137" y="766"/>
      <point x="134" y="754" type="curve" smooth="yes"/>
      <point x="105" y="617" type="line" smooth="yes"/>
      <point x="103" y="605"/>
      <point x="111" y="596"/>
      <point x="120" y="595" type="curve"/>
      <point x="124" y="594" type="line"/>
      <point x="193" y="585"/>
      <point x="239" y="555"/>
      <point x="222" y="476" type="curve" smooth="yes"/>
      <point x="205" y="396"/>
      <point x="226" y="322"/>
      <point x="260" y="309" type="curve"/>
      <point x="220" y="296"/>
      <point x="170" y="230"/>
      <point x="151" y="142" type="curve" smooth="yes"/>
      <point x="134" y="62"/>
      <point x="75" y="33"/>
      <point x="1" y="23" type="curve"/>
      <point x="-2" y="23" type="line"/>
      <point x="-11" y="22"/>
      <point x="-23" y="13"/>
      <point x="-26" y="1" type="curve" smooth="yes"/>
      <point x="-55" y="-136" type="line" smooth="yes"/>
      <point x="-57" y="-148"/>
      <point x="-49" y="-158"/>
      <point x="-37" y="-158" type="curve"/>
      <point x="-30" y="-158" type="line"/>
      <point x="125" y="-155"/>
      <point x="317" y="-69"/>
      <point x="359" y="131" type="curve" smooth="yes"/>
      <point x="368" y="174"/>
      <point x="393" y="218"/>
      <point x="435" y="234" type="curve" smooth="yes"/>
      <point x="453" y="241" type="line" smooth="yes"/>
      <point x="475" y="250"/>
      <point x="487" y="262"/>
      <point x="491" y="283" type="curve" smooth="yes"/>
      <point x="502" y="335" type="line" smooth="yes"/>
      <point x="507" y="356"/>
      <point x="500" y="368"/>
      <point x="482" y="377" type="curve" smooth="yes"/>
      <point x="467" y="384" type="line" smooth="yes"/>
      <point x="431" y="400"/>
      <point x="426" y="444"/>
      <point x="435" y="487" type="curve" smooth="yes"/>
      <point x="477" y="688"/>
      <point x="322" y="774"/>
    </contour>
  </outline>
</glyph>
<glyph name="yen" format="2">
  <advance width="750"/>
  <unicode hex="00A5"/>
  <outline>
    <contour>
      <point x="203" y="0" type="curve" smooth="yes"/>
      <point x="399" y="0" type="line" smooth="yes"/>
      <point x="414" y="0"/>
      <point x="428" y="12"/>
      <point x="431" y="27" type="curve" smooth="yes"/>
      <point x="473" y="221" type="line"/>
      <point x="793" y="669" type="line" smooth="yes"/>
      <point x="794" y="671"/>
      <point x="796" y="675"/>
      <point x="797" y="678" type="curve" smooth="yes"/>
      <point x="799" y="690"/>
      <point x="791" y="700"/>
      <point x="779" y="700" type="curve" smooth="yes"/>
      <point x="581" y="700" type="line" smooth="yes"/>
      <point x="554" y="700"/>
      <point x="538" y="681"/>
      <point x="534" y="675" type="curve" smooth="yes"/>
      <point x="391" y="474" type="line"/>
      <point x="334" y="675" type="line" smooth="yes"/>
      <point x="332" y="681"/>
      <point x="324" y="700"/>
      <point x="297" y="700" type="curve" smooth="yes"/>
      <point x="119" y="700" type="line" smooth="yes"/>
      <point x="107" y="700"/>
      <point x="95" y="690"/>
      <point x="93" y="678" type="curve" smooth="yes"/>
      <point x="92" y="675"/>
      <point x="92" y="671"/>
      <point x="93" y="669" type="curve" smooth="yes"/>
      <point x="222" y="220" type="line"/>
      <point x="181" y="27" type="line" smooth="yes"/>
      <point x="178" y="12"/>
      <point x="188" y="0"/>
    </contour>
    <contour>
      <point x="66" y="33" type="curve" smooth="yes"/>
      <point x="551" y="33" type="line" smooth="yes"/>
      <point x="566" y="33"/>
      <point x="580" y="45"/>
      <point x="583" y="60" type="curve" smooth="yes"/>
      <point x="608" y="176" type="line" smooth="yes"/>
      <point x="611" y="191"/>
      <point x="602" y="203"/>
      <point x="587" y="203" type="curve" smooth="yes"/>
      <point x="102" y="203" type="line" smooth="yes"/>
      <point x="87" y="203"/>
      <point x="72" y="191"/>
      <point x="69" y="176" type="curve" smooth="yes"/>
      <point x="44" y="60" type="line" smooth="yes"/>
      <point x="41" y="45"/>
      <point x="51" y="33"/>
    </contour>
    <contour>
      <point x="102" y="203" type="curve" smooth="yes"/>
      <point x="587" y="203" type="line" smooth="yes"/>
      <point x="602" y="203"/>
      <point x="616" y="215"/>
      <point x="619" y="230" type="curve" smooth="yes"/>
      <point x="644" y="346" type="line" smooth="yes"/>
      <point x="647" y="361"/>
      <point x="638" y="373"/>
      <point x="623" y="373" type="curve" smooth="yes"/>
      <point x="138" y="373" type="line" smooth="yes"/>
      <point x="123" y="373"/>
      <point x="108" y="361"/>
      <point x="105" y="346" type="curve" smooth="yes"/>
      <point x="80" y="230" type="line" smooth="yes"/>
      <point x="77" y="215"/>
      <point x="87" y="203"/>
    </contour>
  </outline>
</glyph>
<glyph name="Aogonek" format="2">
  <advance width="755"/>
  <unicode hex="0104"/>
  <guideline x="350" y="-220" angle="0"/>
  <outline>
    <contour>
      <point x="608" y="-220" type="curve" smooth="yes"/>
      <point x="622" y="-220" type="line" smooth="yes"/>
      <point x="637" y="-220"/>
      <point x="652" y="-208"/>
      <point x="655" y="-193" type="curve" smooth="yes"/>
      <point x="670" y="-125" type="line" smooth="yes"/>
      <point x="673" y="-110"/>
      <point x="663" y="-98"/>
      <point x="648" y="-98" type="curve" smooth="yes"/>
      <point x="638" y="-98" type="line" smooth="yes"/>
      <point x="599" y="-98"/>
      <point x="594" y="-70"/>
      <point x="599" y="-49" type="curve" smooth="yes"/>
      <point x="603" y="-29"/>
      <point x="619" y="-2"/>
      <point x="653" y="0" type="curve"/>
      <point x="684" y="0" type="line" smooth="yes"/>
      <point x="696" y="0"/>
      <point x="708" y="10"/>
      <point x="711" y="22" type="curve" smooth="yes"/>
      <point x="711" y="24"/>
      <point x="712" y="26"/>
      <point x="711" y="29" type="curve" smooth="yes"/>
      <point x="624" y="667" type="line"/>
      <point x="623" y="682"/>
      <point x="613" y="700"/>
      <point x="586" y="700" type="curve" smooth="yes"/>
      <point x="369" y="700" type="line" smooth="yes"/>
      <point x="342" y="700"/>
      <point x="324" y="682"/>
      <point x="317" y="667" type="curve"/>
      <point x="-42" y="29" type="line" smooth="yes"/>
      <point x="-43" y="26"/>
      <point x="-44" y="24"/>
      <point x="-44" y="22" type="curve" smooth="yes"/>
      <point x="-47" y="10"/>
      <point x="-39" y="0"/>
      <point x="-27" y="0" type="curve" smooth="yes"/>
      <point x="158" y="0" type="line" smooth="yes"/>
      <point x="184" y="0"/>
      <point x="196" y="14"/>
      <point x="203" y="25" type="curve" smooth="yes"/>
      <point x="241" y="91" type="line"/>
      <point x="456" y="91" type="line"/>
      <point x="466" y="25" type="line" smooth="yes"/>
      <point x="466" y="15"/>
      <point x="471" y="3"/>
      <point x="488" y="0" type="curve"/>
      <point x="482" y="-15"/>
      <point x="477" y="-31"/>
      <point x="473" y="-49" type="curve" smooth="yes"/>
      <point x="453" y="-144"/>
      <point x="487" y="-220"/>
    </contour>
    <contour>
      <point x="333" y="286" type="line"/>
      <point x="429" y="472" type="line"/>
      <point x="446" y="286" type="line"/>
    </contour>
  </outline>
</glyph>
<glyph name="Scedilla" format="2">
  <advance width="697"/>
  <unicode hex="015E"/>
  <outline>
    <contour>
      <point x="249" y="-220" type="curve" smooth="yes"/>
      <point x="309" y="-220"/>
      <point x="356" y="-183"/>
      <point x="368" y="-130" type="curve" smooth="yes"/>
      <point x="379" y="-77"/>
      <point x="357" y="-40"/>
      <point x="306" y="-40" type="curve" smooth="yes"/>
      <point x="302" y="-40"/>
      <point x="283" y="-42"/>
      <point x="275" y="-45" type="curve"/>
      <point x="300" y="-10" type="line"/>
      <point x="488" y="-8"/>
      <point x="647" y="81"/>
      <point x="678" y="226" type="curve" smooth="yes"/>
      <point x="706" y="356"/>
      <point x="643" y="419"/>
      <point x="449" y="444" type="curve" smooth="yes"/>
      <point x="361" y="455"/>
      <point x="343" y="468"/>
      <point x="347" y="487" type="curve" smooth="yes"/>
      <point x="350" y="504"/>
      <point x="367" y="515"/>
      <point x="401" y="515" type="curve" smooth="yes"/>
      <point x="429" y="515"/>
      <point x="444" y="503"/>
      <point x="450" y="497" type="curve" smooth="yes"/>
      <point x="460" y="486"/>
      <point x="467" y="481"/>
      <point x="486" y="481" type="curve"/>
      <point x="686" y="481" type="line"/>
      <point x="697" y="481"/>
      <point x="710" y="491"/>
      <point x="712" y="503" type="curve" smooth="yes"/>
      <point x="728" y="590"/>
      <point x="642" y="710"/>
      <point x="442" y="710" type="curve" smooth="yes"/>
      <point x="260" y="710"/>
      <point x="117" y="616"/>
      <point x="88" y="480" type="curve" smooth="yes"/>
      <point x="60" y="347"/>
      <point x="146" y="281"/>
      <point x="299" y="260" type="curve" smooth="yes"/>
      <point x="396" y="247"/>
      <point x="424" y="237"/>
      <point x="418" y="213" type="curve" smooth="yes"/>
      <point x="415" y="195"/>
      <point x="383" y="185"/>
      <point x="338" y="185" type="curve" smooth="yes"/>
      <point x="305" y="185"/>
      <point x="284" y="193"/>
      <point x="268" y="208" type="curve" smooth="yes"/>
      <point x="257" y="219"/>
      <point x="250" y="225"/>
      <point x="229" y="225" type="curve"/>
      <point x="39" y="225" type="line"/>
      <point x="27" y="225"/>
      <point x="15" y="215"/>
      <point x="12" y="203" type="curve" smooth="yes"/>
      <point x="-7" y="102"/>
      <point x="60" y="9"/>
      <point x="238" y="-7" type="curve"/>
      <point x="208" y="-52" type="line"/>
      <point x="195" y="-71"/>
      <point x="196" y="-76"/>
      <point x="203" y="-85" type="curve"/>
      <point x="220" y="-106" type="line"/>
      <point x="230" y="-119"/>
      <point x="256" y="-106"/>
      <point x="274" y="-106" type="curve" smooth="yes"/>
      <point x="294" y="-106"/>
      <point x="299" y="-118"/>
      <point x="297" y="-130" type="curve" smooth="yes"/>
      <point x="294" y="-142"/>
      <point x="282" y="-154"/>
      <point x="263" y="-154" type="curve" smooth="yes"/>
      <point x="229" y="-154"/>
      <point x="228" y="-136"/>
      <point x="208" y="-151" type="curve"/>
      <point x="183" y="-169" type="line"/>
      <point x="156" y="-189"/>
      <point x="196" y="-220"/>
    </contour>
  </outline>
</glyph>
<glyph name="uogonek" format="2">
  <advance width="674"/>
  <unicode hex="0173"/>
  <outline>
    <contour>
      <point x="492" y="-220" type="curve" smooth="yes"/>
      <point x="506" y="-220" type="line" smooth="yes"/>
      <point x="521" y="-220"/>
      <point x="536" y="-208"/>
      <point x="539" y="-193" type="curve" smooth="yes"/>
      <point x="554" y="-125" type="line" smooth="yes"/>
      <point x="557" y="-110"/>
      <point x="547" y="-98"/>
      <point x="532" y="-98" type="curve" smooth="yes"/>
      <point x="522" y="-98" type="line" smooth="yes"/>
      <point x="483" y="-98"/>
      <point x="478" y="-70"/>
      <point x="483" y="-49" type="curve" smooth="yes"/>
      <point x="487" y="-29"/>
      <point x="503" y="-2"/>
      <point x="537" y="0" type="curve"/>
      <point x="553" y="0" type="line" smooth="yes"/>
      <point x="568" y="0"/>
      <point x="583" y="12"/>
      <point x="586" y="27" type="curve" smooth="yes"/>
      <point x="685" y="493" type="line" smooth="yes"/>
      <point x="688" y="508"/>
      <point x="679" y="520"/>
      <point x="664" y="520" type="curve" smooth="yes"/>
      <point x="474" y="520" type="line" smooth="yes"/>
      <point x="459" y="520"/>
      <point x="444" y="508"/>
      <point x="441" y="493" type="curve" smooth="yes"/>
      <point x="384" y="224" type="line" smooth="yes"/>
      <point x="376" y="188"/>
      <point x="354" y="169"/>
      <point x="322" y="169" type="curve" smooth="yes"/>
      <point x="290" y="169"/>
      <point x="276" y="188"/>
      <point x="284" y="224" type="curve" smooth="yes"/>
      <point x="341" y="493" type="line" smooth="yes"/>
      <point x="344" y="508"/>
      <point x="335" y="520"/>
      <point x="320" y="520" type="curve" smooth="yes"/>
      <point x="129" y="520" type="line" smooth="yes"/>
      <point x="114" y="520"/>
      <point x="99" y="508"/>
      <point x="96" y="493" type="curve" smooth="yes"/>
      <point x="37" y="217" type="line" smooth="yes"/>
      <point x="4" y="59"/>
      <point x="82" y="-10"/>
      <point x="183" y="-10" type="curve" smooth="yes"/>
      <point x="254" y="-10"/>
      <point x="321" y="11"/>
      <point x="364" y="60" type="curve"/>
      <point x="357" y="27" type="line" smooth="yes"/>
      <point x="354" y="14"/>
      <point x="361" y="3"/>
      <point x="372" y="0" type="curve"/>
      <point x="366" y="-15"/>
      <point x="360" y="-32"/>
      <point x="357" y="-49" type="curve" smooth="yes"/>
      <point x="337" y="-144"/>
      <point x="371" y="-220"/>
    </contour>
  </outline>
</glyph>
<glyph name="breve" format="2">
  <advance width="379"/>
  <unicode hex="02D8"/>
  <outline>
    <contour>
      <point x="183" y="590" type="curve" smooth="yes"/>
      <point x="303" y="590"/>
      <point x="359" y="656"/>
      <point x="378" y="746" type="curve" smooth="yes"/>
      <point x="380" y="756"/>
      <point x="375" y="765"/>
      <point x="363" y="765" type="curve" smooth="yes"/>
      <point x="269" y="765" type="line" smooth="yes"/>
      <point x="257" y="765"/>
      <point x="248" y="756"/>
      <point x="246" y="746" type="curve" smooth="yes"/>
      <point x="240" y="716"/>
      <point x="224" y="691"/>
      <point x="194" y="691" type="curve" smooth="yes"/>
      <point x="164" y="691"/>
      <point x="160" y="716"/>
      <point x="166" y="746" type="curve" smooth="yes"/>
      <point x="168" y="756"/>
      <point x="163" y="765"/>
      <point x="151" y="765" type="curve" smooth="yes"/>
      <point x="57" y="765" type="line" smooth="yes"/>
      <point x="45" y="765"/>
      <point x="36" y="756"/>
      <point x="34" y="746" type="curve" smooth="yes"/>
      <point x="15" y="656"/>
      <point x="83" y="590"/>
    </contour>
  </outline>
</glyph>
<glyph name="Lje-cy" format="2">
  <advance width="1167"/>
  <unicode hex="0409"/>
  <guideline x="8" y="267" angle="0"/>
  <outline>
    <contour>
      <point x="-2" y="0" type="curve" smooth="yes"/>
      <point x="275" y="0"/>
      <point x="338" y="127"/>
      <point x="406" y="449" type="curve" smooth="yes"/>
      <point x="413" y="480" type="line"/>
      <point x="545" y="480" type="line"/>
      <point x="448" y="27" type="line" smooth="yes"/>
      <point x="445" y="12"/>
      <point x="455" y="0"/>
      <point x="470" y="0" type="curve" smooth="yes"/>
      <point x="758" y="0" type="line" smooth="yes"/>
      <point x="950" y="0"/>
      <point x="1081" y="84"/>
      <point x="1116" y="245" type="curve" smooth="yes"/>
      <point x="1150" y="406"/>
      <point x="1053" y="482"/>
      <point x="860" y="482" type="curve" smooth="yes"/>
      <point x="795" y="482" type="line"/>
      <point x="836" y="673" type="line" smooth="yes"/>
      <point x="839" y="688"/>
      <point x="829" y="700"/>
      <point x="814" y="700" type="curve" smooth="yes"/>
      <point x="246" y="700" type="line" smooth="yes"/>
      <point x="231" y="700"/>
      <point x="217" y="688"/>
      <point x="214" y="673" type="curve" smooth="yes"/>
      <point x="173" y="481" type="line" smooth="yes"/>
      <point x="146" y="357"/>
      <point x="112" y="225"/>
      <point x="42" y="212" type="curve" smooth="yes"/>
      <point x="25" y="209"/>
      <point x="12" y="200"/>
      <point x="9" y="185" type="curve" smooth="yes"/>
      <point x="-25" y="27" type="line" smooth="yes"/>
      <point x="-28" y="12"/>
      <point x="-17" y="0"/>
    </contour>
    <contour>
      <point x="732" y="186" type="line"/>
      <point x="756" y="297" type="line"/>
      <point x="821" y="297" type="line" smooth="yes"/>
      <point x="845" y="297"/>
      <point x="863" y="279"/>
      <point x="855" y="243" type="curve" smooth="yes"/>
      <point x="849" y="212"/>
      <point x="829" y="186"/>
      <point x="797" y="186" type="curve" smooth="yes"/>
    </contour>
  </outline>
</glyph>
<glyph name="Tshe-cy" format="2">
  <advance width="828"/>
  <unicode hex="040B"/>
  <guideline x="-24" y="201" angle="0"/>
  <guideline x="405"/>
  <outline>
    <contour>
      <point x="120" y="0" type="curve" smooth="yes"/>
      <point x="316" y="0" type="line" smooth="yes"/>
      <point x="331" y="0"/>
      <point x="345" y="12"/>
      <point x="348" y="27" type="curve" smooth="yes"/>
      <point x="387" y="208" type="line" smooth="yes"/>
      <point x="392" y="234"/>
      <point x="429" y="239"/>
      <point x="461" y="239" type="curve" smooth="yes"/>
      <point x="508" y="239"/>
      <point x="526" y="227"/>
      <point x="521" y="202" type="curve" smooth="yes"/>
      <point x="483" y="27" type="line" smooth="yes"/>
      <point x="480" y="12"/>
      <point x="490" y="0"/>
      <point x="505" y="0" type="curve" smooth="yes"/>
      <point x="701" y="0" type="line" smooth="yes"/>
      <point x="716" y="0"/>
      <point x="730" y="12"/>
      <point x="733" y="27" type="curve" smooth="yes"/>
      <point x="775" y="223" type="line" smooth="yes"/>
      <point x="810" y="388"/>
      <point x="747" y="467"/>
      <point x="574" y="467" type="curve" smooth="yes"/>
      <point x="526" y="467"/>
      <point x="471" y="453"/>
      <point x="435" y="437" type="curve"/>
      <point x="454" y="523" type="line"/>
      <point x="661" y="523" type="line" smooth="yes"/>
      <point x="674" y="523"/>
      <point x="686" y="533"/>
      <point x="689" y="546" type="curve" smooth="yes"/>
      <point x="717" y="677" type="line" smooth="yes"/>
      <point x="719" y="690"/>
      <point x="711" y="700"/>
      <point x="698" y="700" type="curve" smooth="yes"/>
      <point x="124" y="700" type="line" smooth="yes"/>
      <point x="111" y="700"/>
      <point x="99" y="690"/>
      <point x="97" y="677" type="curve" smooth="yes"/>
      <point x="69" y="546" type="line" smooth="yes"/>
      <point x="66" y="533"/>
      <point x="74" y="523"/>
      <point x="87" y="523" type="curve" smooth="yes"/>
      <point x="204" y="523" type="line"/>
      <point x="98" y="27" type="line" smooth="yes"/>
      <point x="95" y="12"/>
      <point x="105" y="0"/>
    </contour>
  </outline>
</glyph>
<glyph name="Zhe-cy" format="2">
  <advance width="1174"/>
  <unicode hex="0416"/>
  <anchor x="780" y="0" name="bottomright"/>
  <anchor x="680" y="700" name="top"/>
  <outline>
    <contour>
      <point x="1199" y="700" type="curve" smooth="yes"/>
      <point x="978" y="700" type="line" smooth="yes"/>
      <point x="956" y="700"/>
      <point x="942" y="689"/>
      <point x="934" y="678" type="curve" smooth="yes"/>
      <point x="766" y="463" type="line"/>
      <point x="750" y="463" type="line"/>
      <point x="795" y="673" type="line" smooth="yes"/>
      <point x="798" y="688"/>
      <point x="788" y="700"/>
      <point x="773" y="700" type="curve" smooth="yes"/>
      <point x="587" y="700" type="line" smooth="yes"/>
      <point x="572" y="700"/>
      <point x="558" y="688"/>
      <point x="555" y="673" type="curve" smooth="yes"/>
      <point x="510" y="463" type="line"/>
      <point x="484" y="463" type="line"/>
      <point x="408" y="678" type="line" smooth="yes"/>
      <point x="404" y="689"/>
      <point x="394" y="700"/>
      <point x="372" y="700" type="curve" smooth="yes"/>
      <point x="161" y="700" type="line" smooth="yes"/>
      <point x="149" y="700"/>
      <point x="137" y="690"/>
      <point x="135" y="678" type="curve"/>
      <point x="134" y="674"/>
      <point x="134" y="670"/>
      <point x="135" y="667" type="curve"/>
      <point x="251" y="365" type="line"/>
      <point x="-16" y="33" type="line"/>
      <point x="-19" y="30"/>
      <point x="-21" y="25"/>
      <point x="-22" y="22" type="curve"/>
      <point x="-24" y="10"/>
      <point x="-16" y="0"/>
      <point x="-4" y="0" type="curve" smooth="yes"/>
      <point x="234" y="0" type="line" smooth="yes"/>
      <point x="261" y="0"/>
      <point x="274" y="17"/>
      <point x="279" y="23" type="curve"/>
      <point x="449" y="243" type="line"/>
      <point x="463" y="243" type="line"/>
      <point x="417" y="27" type="line" smooth="yes"/>
      <point x="414" y="11"/>
      <point x="424" y="0"/>
      <point x="439" y="0" type="curve" smooth="yes"/>
      <point x="625" y="0" type="line" smooth="yes"/>
      <point x="640" y="0"/>
      <point x="654" y="11"/>
      <point x="657" y="27" type="curve" smooth="yes"/>
      <point x="703" y="243" type="line"/>
      <point x="737" y="243" type="line"/>
      <point x="813" y="23" type="line"/>
      <point x="816" y="17"/>
      <point x="823" y="0"/>
      <point x="850" y="0" type="curve" smooth="yes"/>
      <point x="1068" y="0" type="line" smooth="yes"/>
      <point x="1080" y="0"/>
      <point x="1092" y="10"/>
      <point x="1094" y="22" type="curve"/>
      <point x="1095" y="25"/>
      <point x="1095" y="30"/>
      <point x="1094" y="33" type="curve"/>
      <point x="967" y="365" type="line"/>
      <point x="1211" y="667" type="line"/>
      <point x="1214" y="670"/>
      <point x="1216" y="674"/>
      <point x="1217" y="678" type="curve"/>
      <point x="1219" y="690"/>
      <point x="1211" y="700"/>
    </contour>
  </outline>
</glyph>
<glyph name="Ii-cy" format="2">
  <advance width="809"/>
  <unicode hex="0418"/>
  <anchor x="469" y="0" name="bottomright"/>
  <anchor x="500" y="700" name="top"/>
  <outline>
    <contour>
      <point x="19" y="0" type="curve" smooth="yes"/>
      <point x="192" y="0" type="line" smooth="yes"/>
      <point x="215" y="0"/>
      <point x="227" y="11"/>
      <point x="237" y="23" type="curve"/>
      <point x="508" y="313" type="line"/>
      <point x="447" y="27" type="line" smooth="yes"/>
      <point x="444" y="12"/>
      <point x="454" y="0"/>
      <point x="469" y="0" type="curve" smooth="yes"/>
      <point x="665" y="0" type="line" smooth="yes"/>
      <point x="680" y="0"/>
      <point x="694" y="12"/>
      <point x="697" y="27" type="curve" smooth="yes"/>
      <point x="835" y="673" type="line" smooth="yes"/>
      <point x="838" y="688"/>
      <point x="828" y="700"/>
      <point x="813" y="700" type="curve" smooth="yes"/>
      <point x="640" y="700" type="line" smooth="yes"/>
      <point x="621" y="700"/>
      <point x="607" y="692"/>
      <point x="595" y="677" type="curve"/>
      <point x="319" y="364" type="line"/>
      <point x="385" y="673" type="line" smooth="yes"/>
      <point x="388" y="688"/>
      <point x="378" y="700"/>
      <point x="363" y="700" type="curve" smooth="yes"/>
      <point x="167" y="700" type="line" smooth="yes"/>
      <point x="152" y="700"/>
      <point x="138" y="688"/>
      <point x="135" y="673" type="curve" smooth="yes"/>
      <point x="-3" y="27" type="line" smooth="yes"/>
      <point x="-6" y="12"/>
      <point x="4" y="0"/>
    </contour>
  </outline>
</glyph>
<glyph name="Yeru-cy" format="2">
  <advance width="1047"/>
  <unicode hex="042B"/>
  <anchor x="801" y="0" name="bottom"/>
  <anchor x="950" y="10" name="ogonek"/>
  <anchor x="609" y="700" name="top"/>
  <anchor x="785" y="700" name="topleft"/>
  <outline>
    <contour>
      <point x="19" y="0" type="curve" smooth="yes"/>
      <point x="307" y="0" type="line" smooth="yes"/>
      <point x="499" y="0"/>
      <point x="630" y="84"/>
      <point x="665" y="245" type="curve" smooth="yes"/>
      <point x="699" y="406"/>
      <point x="602" y="482"/>
      <point x="409" y="482" type="curve" smooth="yes"/>
      <point x="344" y="482" type="line"/>
      <point x="385" y="673" type="line" smooth="yes"/>
      <point x="388" y="688"/>
      <point x="378" y="700"/>
      <point x="363" y="700" type="curve" smooth="yes"/>
      <point x="167" y="700" type="line" smooth="yes"/>
      <point x="152" y="700"/>
      <point x="138" y="688"/>
      <point x="135" y="673" type="curve" smooth="yes"/>
      <point x="-3" y="27" type="line" smooth="yes"/>
      <point x="-6" y="12"/>
      <point x="4" y="0"/>
    </contour>
    <contour>
      <point x="281" y="186" type="line"/>
      <point x="305" y="297" type="line"/>
      <point x="370" y="297" type="line" smooth="yes"/>
      <point x="394" y="297"/>
      <point x="412" y="279"/>
      <point x="404" y="243" type="curve" smooth="yes"/>
      <point x="398" y="212"/>
      <point x="378" y="186"/>
      <point x="346" y="186" type="curve" smooth="yes"/>
    </contour>
    <contour>
      <point x="699" y="0" type="curve" smooth="yes"/>
      <point x="903" y="0" type="line" smooth="yes"/>
      <point x="918" y="0"/>
      <point x="932" y="12"/>
      <point x="935" y="27" type="curve" smooth="yes"/>
      <point x="1073" y="673" type="line" smooth="yes"/>
      <point x="1076" y="688"/>
      <point x="1066" y="700"/>
      <point x="1051" y="700" type="curve" smooth="yes"/>
      <point x="847" y="700" type="line" smooth="yes"/>
      <point x="832" y="700"/>
      <point x="818" y="688"/>
      <point x="815" y="673" type="curve" smooth="yes"/>
      <point x="677" y="27" type="line" smooth="yes"/>
      <point x="674" y="12"/>
      <point x="684" y="0"/>
    </contour>
  </outline>
</glyph>
<glyph name="Ereversed-cy" format="2">
  <advance width="733"/>
  <unicode hex="042D"/>
  <outline>
    <contour>
      <point x="283" y="-10" type="curve" smooth="yes"/>
      <point x="484" y="-10"/>
      <point x="629" y="77"/>
      <point x="676" y="261" type="curve" smooth="yes"/>
      <point x="694" y="336"/>
      <point x="700" y="364"/>
      <point x="714" y="439" type="curve" smooth="yes"/>
      <point x="744" y="618"/>
      <point x="633" y="710"/>
      <point x="437" y="710" type="curve" smooth="yes"/>
      <point x="273" y="710"/>
      <point x="121" y="649"/>
      <point x="72" y="501" type="curve" smooth="yes"/>
      <point x="69" y="489"/>
      <point x="77" y="479"/>
      <point x="89" y="479" type="curve" smooth="yes"/>
      <point x="287" y="479" type="line" smooth="yes"/>
      <point x="304" y="479"/>
      <point x="311" y="483"/>
      <point x="323" y="495" type="curve" smooth="yes"/>
      <point x="332" y="504"/>
      <point x="354" y="515"/>
      <point x="389" y="515" type="curve" smooth="yes"/>
      <point x="441" y="515"/>
      <point x="466" y="494"/>
      <point x="456" y="448" type="curve"/>
      <point x="454" y="438" type="line"/>
      <point x="301" y="438" type="line" smooth="yes"/>
      <point x="286" y="438"/>
      <point x="271" y="424"/>
      <point x="268" y="409" type="curve" smooth="yes"/>
      <point x="242" y="289" type="line" smooth="yes"/>
      <point x="239" y="274"/>
      <point x="248" y="260"/>
      <point x="263" y="260" type="curve" smooth="yes"/>
      <point x="416" y="260" type="line"/>
      <point x="414" y="250" type="line"/>
      <point x="404" y="205"/>
      <point x="370" y="183"/>
      <point x="319" y="183" type="curve" smooth="yes"/>
      <point x="284" y="183"/>
      <point x="266" y="190"/>
      <point x="256" y="203" type="curve" smooth="yes"/>
      <point x="247" y="214"/>
      <point x="241" y="219"/>
      <point x="225" y="219" type="curve" smooth="yes"/>
      <point x="29" y="219" type="line" smooth="yes"/>
      <point x="17" y="219"/>
      <point x="4" y="209"/>
      <point x="2" y="197" type="curve" smooth="yes"/>
      <point x="-11" y="58"/>
      <point x="114" y="-10"/>
    </contour>
  </outline>
</glyph>
<glyph name="de-cy" format="2">
  <advance width="644"/>
  <unicode hex="0434"/>
  <guideline x="-62" y="-110" angle="0"/>
  <outline>
    <contour>
      <point x="265" y="-10" type="curve" smooth="yes"/>
      <point x="459" y="-10"/>
      <point x="552" y="66"/>
      <point x="593" y="213" type="curve" smooth="yes"/>
      <point x="614" y="287"/>
      <point x="626" y="337"/>
      <point x="631" y="399" type="curve" smooth="yes"/>
      <point x="646" y="633"/>
      <point x="521" y="753"/>
      <point x="257" y="751" type="curve"/>
      <point x="241" y="750"/>
      <point x="229" y="738"/>
      <point x="229" y="723" type="curve" smooth="yes"/>
      <point x="229" y="617" type="line" smooth="yes"/>
      <point x="229" y="602"/>
      <point x="240" y="590"/>
      <point x="256" y="590" type="curve"/>
      <point x="396" y="585"/>
      <point x="457" y="547"/>
      <point x="450" y="463" type="curve"/>
      <point x="412" y="483"/>
      <point x="368" y="492"/>
      <point x="321" y="492" type="curve" smooth="yes"/>
      <point x="155" y="492"/>
      <point x="61" y="416"/>
      <point x="24" y="269" type="curve" smooth="yes"/>
      <point x="16" y="239"/>
      <point x="17" y="243"/>
      <point x="13" y="213" type="curve" smooth="yes"/>
      <point x="-8" y="66"/>
      <point x="91" y="-10"/>
    </contour>
    <contour>
      <point x="289" y="150" type="curve" smooth="yes"/>
      <point x="251" y="150"/>
      <point x="252" y="171"/>
      <point x="259" y="218" type="curve" smooth="yes"/>
      <point x="262" y="238"/>
      <point x="263" y="244"/>
      <point x="268" y="264" type="curve" smooth="yes"/>
      <point x="280" y="308"/>
      <point x="289" y="332"/>
      <point x="327" y="332" type="curve" smooth="yes"/>
      <point x="365" y="332"/>
      <point x="365" y="308"/>
      <point x="358" y="264" type="curve" smooth="yes"/>
      <point x="355" y="244"/>
      <point x="354" y="238"/>
      <point x="349" y="218" type="curve" smooth="yes"/>
      <point x="336" y="171"/>
      <point x="327" y="150"/>
    </contour>
  </outline>
</glyph>
<glyph name="tse-cy" format="2">
  <advance width="724"/>
  <unicode hex="0446"/>
  <guideline x="-67" y="-110" angle="0"/>
  <outline>
    <contour>
      <point x="404" y="-110" type="curve" smooth="yes"/>
      <point x="583" y="-110" type="line" smooth="yes"/>
      <point x="598" y="-110"/>
      <point x="613" y="-98"/>
      <point x="616" y="-83" type="curve" smooth="yes"/>
      <point x="665" y="148" type="line" smooth="yes"/>
      <point x="668" y="163"/>
      <point x="659" y="175"/>
      <point x="644" y="175" type="curve" smooth="yes"/>
      <point x="605" y="175" type="line"/>
      <point x="672" y="493" type="line" smooth="yes"/>
      <point x="675" y="508"/>
      <point x="666" y="520"/>
      <point x="651" y="520" type="curve" smooth="yes"/>
      <point x="472" y="520" type="line" smooth="yes"/>
      <point x="457" y="520"/>
      <point x="442" y="508"/>
      <point x="439" y="493" type="curve" smooth="yes"/>
      <point x="372" y="175" type="line"/>
      <point x="272" y="175" type="line"/>
      <point x="339" y="493" type="line" smooth="yes"/>
      <point x="342" y="508"/>
      <point x="333" y="520"/>
      <point x="318" y="520" type="curve" smooth="yes"/>
      <point x="139" y="520" type="line" smooth="yes"/>
      <point x="124" y="520"/>
      <point x="109" y="508"/>
      <point x="106" y="493" type="curve" smooth="yes"/>
      <point x="7" y="27" type="line" smooth="yes"/>
      <point x="4" y="12"/>
      <point x="13" y="0"/>
      <point x="28" y="0" type="curve" smooth="yes"/>
      <point x="400" y="0" type="line"/>
      <point x="383" y="-83" type="line" smooth="yes"/>
      <point x="380" y="-98"/>
      <point x="389" y="-110"/>
    </contour>
  </outline>
</glyph>
<glyph name="sha-cy" format="2">
  <advance width="867"/>
  <unicode hex="0448"/>
  <outline>
    <contour>
      <point x="17" y="0" type="curve" smooth="yes"/>
      <point x="733" y="0" type="line" smooth="yes"/>
      <point x="748" y="0"/>
      <point x="762" y="12"/>
      <point x="765" y="27" type="curve" smooth="yes"/>
      <point x="865" y="493" type="line" smooth="yes"/>
      <point x="868" y="508"/>
      <point x="858" y="520"/>
      <point x="843" y="520" type="curve" smooth="yes"/>
      <point x="674" y="520" type="line" smooth="yes"/>
      <point x="659" y="520"/>
      <point x="645" y="508"/>
      <point x="642" y="493" type="curve" smooth="yes"/>
      <point x="574" y="175" type="line"/>
      <point x="516" y="175" type="line"/>
      <point x="584" y="493" type="line" smooth="yes"/>
      <point x="587" y="508"/>
      <point x="577" y="520"/>
      <point x="562" y="520" type="curve" smooth="yes"/>
      <point x="408" y="520" type="line" smooth="yes"/>
      <point x="393" y="520"/>
      <point x="379" y="508"/>
      <point x="376" y="493" type="curve" smooth="yes"/>
      <point x="308" y="175" type="line"/>
      <point x="250" y="175" type="line"/>
      <point x="318" y="493" type="line" smooth="yes"/>
      <point x="321" y="508"/>
      <point x="311" y="520"/>
      <point x="296" y="520" type="curve" smooth="yes"/>
      <point x="127" y="520" type="line" smooth="yes"/>
      <point x="112" y="520"/>
      <point x="98" y="508"/>
      <point x="95" y="493" type="curve" smooth="yes"/>
      <point x="-5" y="27" type="line" smooth="yes"/>
      <point x="-8" y="12"/>
      <point x="2" y="0"/>
    </contour>
  </outline>
</glyph>
<glyph name="iu-cy" format="2">
  <advance width="945"/>
  <unicode hex="044E"/>
  <outline>
    <contour>
      <point x="448" y="175" type="line"/>
      <point x="485" y="350" type="line"/>
      <point x="297" y="350" type="line"/>
      <point x="328" y="493" type="line" smooth="yes"/>
      <point x="331" y="508"/>
      <point x="321" y="520"/>
      <point x="306" y="520" type="curve" smooth="yes"/>
      <point x="127" y="520" type="line" smooth="yes"/>
      <point x="112" y="520"/>
      <point x="98" y="508"/>
      <point x="95" y="493" type="curve" smooth="yes"/>
      <point x="-5" y="27" type="line" smooth="yes"/>
      <point x="-8" y="12"/>
      <point x="2" y="0"/>
      <point x="17" y="0" type="curve" smooth="yes"/>
      <point x="196" y="0" type="line" smooth="yes"/>
      <point x="211" y="0"/>
      <point x="225" y="12"/>
      <point x="228" y="27" type="curve" smooth="yes"/>
      <point x="260" y="175" type="line"/>
    </contour>
    <contour>
      <point x="559" y="-10" type="curve" smooth="yes"/>
      <point x="743" y="-10"/>
      <point x="855" y="66"/>
      <point x="896" y="213" type="curve" smooth="yes"/>
      <point x="904" y="243"/>
      <point x="912" y="277"/>
      <point x="916" y="307" type="curve" smooth="yes"/>
      <point x="937" y="454"/>
      <point x="846" y="530"/>
      <point x="673" y="530" type="curve" smooth="yes"/>
      <point x="500" y="530"/>
      <point x="377" y="454"/>
      <point x="336" y="307" type="curve" smooth="yes"/>
      <point x="328" y="277"/>
      <point x="320" y="243"/>
      <point x="316" y="213" type="curve" smooth="yes"/>
      <point x="295" y="66"/>
      <point x="375" y="-10"/>
    </contour>
    <contour>
      <point x="593" y="150" type="curve" smooth="yes"/>
      <point x="555" y="150"/>
      <point x="555" y="171"/>
      <point x="562" y="218" type="curve" smooth="yes"/>
      <point x="565" y="238"/>
      <point x="575" y="282"/>
      <point x="580" y="302" type="curve" smooth="yes"/>
      <point x="592" y="346"/>
      <point x="601" y="370"/>
      <point x="639" y="370" type="curve" smooth="yes"/>
      <point x="677" y="370"/>
      <point x="676" y="346"/>
      <point x="670" y="302" type="curve" smooth="yes"/>
      <point x="667" y="282"/>
      <point x="657" y="238"/>
      <point x="652" y="218" type="curve" smooth="yes"/>
      <point x="639" y="171"/>
      <point x="631" y="150"/>
    </contour>
  </outline>
</glyph>
<glyph name="ia-cy" format="2">
  <advance width="645"/>
  <unicode hex="044F"/>
  <guideline x="563"/>
  <guideline x="179" y="394" angle="90"/>
  <outline>
    <contour>
      <point x="336" y="0" type="curve" smooth="yes"/>
      <point x="511" y="0" type="line" smooth="yes"/>
      <point x="526" y="0"/>
      <point x="540" y="12"/>
      <point x="543" y="27" type="curve" smooth="yes"/>
      <point x="643" y="493" type="line" smooth="yes"/>
      <point x="646" y="508"/>
      <point x="636" y="520"/>
      <point x="621" y="520" type="curve" smooth="yes"/>
      <point x="339" y="520" type="line" smooth="yes"/>
      <point x="201" y="520"/>
      <point x="94" y="462"/>
      <point x="68" y="346" type="curve" smooth="yes"/>
      <point x="44" y="239"/>
      <point x="132" y="156"/>
      <point x="285" y="156" type="curve"/>
      <point x="284" y="151" type="line"/>
      <point x="341" y="151" type="line"/>
      <point x="314" y="27" type="line" smooth="yes"/>
      <point x="311" y="12"/>
      <point x="321" y="0"/>
    </contour>
    <contour>
      <point x="7" y="0" type="curve" smooth="yes"/>
      <point x="197" y="0" type="line" smooth="yes"/>
      <point x="208" y="0"/>
      <point x="216" y="5"/>
      <point x="222" y="15" type="curve" smooth="yes"/>
      <point x="319" y="166" type="line"/>
      <point x="129" y="206" type="line"/>
      <point x="-6" y="31" type="line"/>
      <point x="-9" y="27"/>
      <point x="-10" y="23"/>
      <point x="-11" y="20" type="curve" smooth="yes"/>
      <point x="-13" y="9"/>
      <point x="-6" y="0"/>
    </contour>
    <contour>
      <point x="313" y="300" type="line" smooth="yes"/>
      <point x="286" y="300"/>
      <point x="275" y="313"/>
      <point x="280" y="336" type="curve" smooth="yes"/>
      <point x="285" y="359"/>
      <point x="301" y="371"/>
      <point x="328" y="371" type="curve" smooth="yes"/>
      <point x="393" y="371" type="line"/>
      <point x="378" y="300" type="line"/>
    </contour>
  </outline>
</glyph>
<glyph name="dzhe-cy" format="2">
  <advance width="664"/>
  <unicode hex="045F"/>
  <guideline x="-78" y="-110" angle="0"/>
  <outline>
    <contour>
      <point x="161" y="-110" type="curve" smooth="yes"/>
      <point x="339" y="-110" type="line" smooth="yes"/>
      <point x="354" y="-110"/>
      <point x="369" y="-98"/>
      <point x="372" y="-83" type="curve" smooth="yes"/>
      <point x="389" y="0" type="line"/>
      <point x="529" y="0" type="line" smooth="yes"/>
      <point x="544" y="0"/>
      <point x="559" y="12"/>
      <point x="562" y="27" type="curve" smooth="yes"/>
      <point x="661" y="493" type="line" smooth="yes"/>
      <point x="664" y="508"/>
      <point x="655" y="520"/>
      <point x="640" y="520" type="curve" smooth="yes"/>
      <point x="461" y="520" type="line" smooth="yes"/>
      <point x="446" y="520"/>
      <point x="431" y="508"/>
      <point x="428" y="493" type="curve" smooth="yes"/>
      <point x="361" y="175" type="line"/>
      <point x="261" y="175" type="line"/>
      <point x="328" y="493" type="line" smooth="yes"/>
      <point x="331" y="508"/>
      <point x="322" y="520"/>
      <point x="307" y="520" type="curve" smooth="yes"/>
      <point x="128" y="520" type="line" smooth="yes"/>
      <point x="113" y="520"/>
      <point x="98" y="508"/>
      <point x="95" y="493" type="curve" smooth="yes"/>
      <point x="-4" y="27" type="line" smooth="yes"/>
      <point x="-7" y="12"/>
      <point x="2" y="0"/>
      <point x="17" y="0" type="curve" smooth="yes"/>
      <point x="157" y="0" type="line"/>
      <point x="140" y="-83" type="line" smooth="yes"/>
      <point x="137" y="-98"/>
      <point x="146" y="-110"/>
    </contour>
  </outline>
</glyph>
<glyph name="izhitsa-cy" format="2">
  <advance width="622"/>
  <unicode hex="0475"/>
  <outline>
    <contour>
      <point x="172" y="0" type="curve" smooth="yes"/>
      <point x="322" y="0" type="line" smooth="yes"/>
      <point x="342" y="0"/>
      <point x="351" y="13"/>
      <point x="360" y="25" type="curve"/>
      <point x="509" y="270" type="line" smooth="yes"/>
      <point x="544" y="327"/>
      <point x="564" y="345"/>
      <point x="595" y="345" type="curve" smooth="yes"/>
      <point x="610" y="345"/>
      <point x="623" y="357"/>
      <point x="626" y="373" type="curve" smooth="yes"/>
      <point x="651" y="492" type="line" smooth="yes"/>
      <point x="655" y="508"/>
      <point x="645" y="520"/>
      <point x="629" y="520" type="curve" smooth="yes"/>
      <point x="569" y="520" type="line" smooth="yes"/>
      <point x="476" y="520"/>
      <point x="442" y="481"/>
      <point x="391" y="398" type="curve" smooth="yes"/>
      <point x="250" y="165" type="line"/>
      <point x="323" y="149" type="line"/>
      <point x="277" y="496" type="line" smooth="yes"/>
      <point x="276" y="507"/>
      <point x="269" y="520"/>
      <point x="249" y="520" type="curve" smooth="yes"/>
      <point x="80" y="520" type="line" smooth="yes"/>
      <point x="67" y="520"/>
      <point x="54" y="509"/>
      <point x="51" y="496" type="curve" smooth="yes"/>
      <point x="51" y="494"/>
      <point x="50" y="492"/>
      <point x="51" y="489" type="curve"/>
      <point x="144" y="25" type="line"/>
      <point x="147" y="13"/>
      <point x="152" y="0"/>
    </contour>
  </outline>
</glyph>
<glyph name="Zedescender-cy" format="2">
  <advance width="723"/>
  <unicode hex="0498"/>
  <outline>
    <contour>
      <point x="151" y="-140" type="curve" smooth="yes"/>
      <point x="347" y="-140" type="line" smooth="yes"/>
      <point x="362" y="-140"/>
      <point x="376" y="-128"/>
      <point x="379" y="-113" type="curve" smooth="yes"/>
      <point x="417" y="63" type="line"/>
      <point x="166" y="60" type="line"/>
      <point x="129" y="-113" type="line" smooth="yes"/>
      <point x="126" y="-128"/>
      <point x="136" y="-140"/>
    </contour>
    <component base="Ze-cy"/>
  </outline>
</glyph>
<glyph name="kadescender-cy" format="2">
  <advance width="670"/>
  <unicode hex="049B"/>
  <outline>
    <contour>
      <point x="380" y="-110" type="curve" smooth="yes"/>
      <point x="539" y="-110" type="line" smooth="yes"/>
      <point x="554" y="-110"/>
      <point x="569" y="-98"/>
      <point x="572" y="-83" type="curve" smooth="yes"/>
      <point x="621" y="148" type="line" smooth="yes"/>
      <point x="624" y="163"/>
      <point x="615" y="175"/>
      <point x="600" y="175" type="curve" smooth="yes"/>
      <point x="358" y="175" type="line"/>
      <point x="362" y="0" type="line"/>
      <point x="376" y="0" type="line"/>
      <point x="359" y="-83" type="line" smooth="yes"/>
      <point x="356" y="-98"/>
      <point x="365" y="-110"/>
    </contour>
    <component base="ka-cy"/>
  </outline>
</glyph>
<glyph name="kaverticalstroke-cy" format="2">
  <advance width="756"/>
  <unicode hex="049D"/>
  <outline>
    <contour>
      <point x="17" y="0" type="curve" smooth="yes"/>
      <point x="192" y="0" type="line" smooth="yes"/>
      <point x="207" y="0"/>
      <point x="221" y="12"/>
      <point x="224" y="27" type="curve" smooth="yes"/>
      <point x="260" y="195" type="line"/>
      <point x="355" y="195" type="line"/>
      <point x="424" y="17" type="line"/>
      <point x="428" y="8"/>
      <point x="436" y="0"/>
      <point x="452" y="0" type="curve" smooth="yes"/>
      <point x="642" y="0" type="line" smooth="yes"/>
      <point x="655" y="0"/>
      <point x="669" y="11"/>
      <point x="671" y="24" type="curve" smooth="yes"/>
      <point x="672" y="30"/>
      <point x="671" y="34"/>
      <point x="670" y="37" type="curve"/>
      <point x="574" y="250" type="line"/>
      <point x="759" y="481" type="line"/>
      <point x="762" y="484"/>
      <point x="766" y="490"/>
      <point x="767" y="496" type="curve" smooth="yes"/>
      <point x="769" y="509"/>
      <point x="761" y="520"/>
      <point x="748" y="520" type="curve" smooth="yes"/>
      <point x="556" y="520" type="line" smooth="yes"/>
      <point x="538" y="520"/>
      <point x="528" y="508"/>
      <point x="524" y="503" type="curve" smooth="yes"/>
      <point x="390" y="330" type="line"/>
      <point x="289" y="330" type="line"/>
      <point x="324" y="493" type="line" smooth="yes"/>
      <point x="327" y="508"/>
      <point x="317" y="520"/>
      <point x="302" y="520" type="curve" smooth="yes"/>
      <point x="127" y="520" type="line" smooth="yes"/>
      <point x="112" y="520"/>
      <point x="98" y="508"/>
      <point x="95" y="493" type="curve" smooth="yes"/>
      <point x="-5" y="27" type="line" smooth="yes"/>
      <point x="-8" y="12"/>
      <point x="2" y="0"/>
    </contour>
    <contour>
      <point x="292" y="99" type="curve" smooth="yes"/>
      <point x="304" y="99" type="line" smooth="yes"/>
      <point x="319" y="99"/>
      <point x="333" y="111"/>
      <point x="337" y="126" type="curve" smooth="yes"/>
      <point x="395" y="401" type="line" smooth="yes"/>
      <point x="398" y="416"/>
      <point x="389" y="428"/>
      <point x="374" y="428" type="curve" smooth="yes"/>
      <point x="362" y="428" type="line" smooth="yes"/>
      <point x="347" y="428"/>
      <point x="332" y="416"/>
      <point x="329" y="401" type="curve" smooth="yes"/>
      <point x="271" y="126" type="line" smooth="yes"/>
      <point x="267" y="111"/>
      <point x="277" y="99"/>
    </contour>
  </outline>
</glyph>
<glyph name="kabashkir-cy" format="2">
  <advance width="796"/>
  <unicode hex="04A1"/>
  <outline>
    <contour>
      <point x="193" y="345" type="line"/>
      <point x="454" y="493" type="line"/>
      <point x="457" y="508"/>
      <point x="447" y="520"/>
      <point x="432" y="520" type="curve" smooth="yes"/>
      <point x="97" y="520" type="line" smooth="yes"/>
      <point x="82" y="520"/>
      <point x="68" y="508"/>
      <point x="65" y="493" type="curve" smooth="yes"/>
      <point x="39" y="372" type="line" smooth="yes"/>
      <point x="36" y="357"/>
      <point x="45" y="345"/>
      <point x="60" y="345" type="curve" smooth="yes"/>
    </contour>
    <component base="ka-cy" xOffset="130"/>
  </outline>
</glyph>
<glyph name="Enghe-cy" format="2">
  <advance width="972"/>
  <unicode hex="04A4"/>
  <outline>
    <contour>
      <point x="999" y="700" type="curve" smooth="yes"/>
      <point x="579" y="700" type="line" smooth="yes"/>
      <point x="564" y="700"/>
      <point x="550" y="688"/>
      <point x="547" y="673" type="curve" smooth="yes"/>
      <point x="502" y="463" type="line"/>
      <point x="340" y="463" type="line"/>
      <point x="385" y="673" type="line" smooth="yes"/>
      <point x="388" y="688"/>
      <point x="378" y="700"/>
      <point x="363" y="700" type="curve" smooth="yes"/>
      <point x="167" y="700" type="line" smooth="yes"/>
      <point x="152" y="700"/>
      <point x="138" y="688"/>
      <point x="135" y="673" type="curve" smooth="yes"/>
      <point x="-3" y="27" type="line" smooth="yes"/>
      <point x="-6" y="11"/>
      <point x="4" y="0"/>
      <point x="19" y="0" type="curve" smooth="yes"/>
      <point x="215" y="0" type="line" smooth="yes"/>
      <point x="230" y="0"/>
      <point x="244" y="12"/>
      <point x="247" y="27" type="curve" smooth="yes"/>
      <point x="293" y="243" type="line"/>
      <point x="455" y="243" type="line"/>
      <point x="409" y="27" type="line" smooth="yes"/>
      <point x="406" y="12"/>
      <point x="416" y="0"/>
      <point x="431" y="0" type="curve" smooth="yes"/>
      <point x="627" y="0" type="line" smooth="yes"/>
      <point x="642" y="0"/>
      <point x="656" y="12"/>
      <point x="659" y="27" type="curve" smooth="yes"/>
      <point x="759" y="495" type="line"/>
      <point x="956" y="495" type="line" smooth="yes"/>
      <point x="971" y="495"/>
      <point x="985" y="507"/>
      <point x="989" y="522" type="curve" smooth="yes"/>
      <point x="1021" y="673" type="line" smooth="yes"/>
      <point x="1024" y="688"/>
      <point x="1014" y="700"/>
    </contour>
  </outline>
</glyph>
<glyph name="enghe-cy" format="2">
  <advance width="797"/>
  <unicode hex="04A5"/>
  <outline>
    <contour>
      <point x="805" y="520" type="curve" smooth="yes"/>
      <point x="460" y="520" type="line" smooth="yes"/>
      <point x="445" y="520"/>
      <point x="431" y="508"/>
      <point x="428" y="493" type="curve" smooth="yes"/>
      <point x="397" y="350" type="line"/>
      <point x="297" y="350" type="line"/>
      <point x="328" y="493" type="line" smooth="yes"/>
      <point x="331" y="508"/>
      <point x="321" y="520"/>
      <point x="306" y="520" type="curve" smooth="yes"/>
      <point x="127" y="520" type="line" smooth="yes"/>
      <point x="112" y="520"/>
      <point x="98" y="508"/>
      <point x="95" y="493" type="curve" smooth="yes"/>
      <point x="-5" y="27" type="line" smooth="yes"/>
      <point x="-8" y="12"/>
      <point x="2" y="0"/>
      <point x="17" y="0" type="curve" smooth="yes"/>
      <point x="196" y="0" type="line" smooth="yes"/>
      <point x="211" y="0"/>
      <point x="225" y="12"/>
      <point x="228" y="27" type="curve" smooth="yes"/>
      <point x="260" y="175" type="line"/>
      <point x="360" y="175" type="line"/>
      <point x="328" y="27" type="line" smooth="yes"/>
      <point x="325" y="12"/>
      <point x="335" y="0"/>
      <point x="350" y="0" type="curve" smooth="yes"/>
      <point x="529" y="0" type="line" smooth="yes"/>
      <point x="544" y="0"/>
      <point x="558" y="12"/>
      <point x="561" y="27" type="curve" smooth="yes"/>
      <point x="629" y="345" type="line"/>
      <point x="768" y="345" type="line" smooth="yes"/>
      <point x="783" y="345"/>
      <point x="798" y="357"/>
      <point x="801" y="372" type="curve" smooth="yes"/>
      <point x="827" y="493" type="line" smooth="yes"/>
      <point x="830" y="508"/>
      <point x="820" y="520"/>
    </contour>
  </outline>
</glyph>
<glyph name="aie-cy" format="2">
  <advance width="935"/>
  <unicode hex="04D5"/>
  <outline>
    <contour>
      <point x="181" y="-10" type="curve" smooth="yes"/>
      <point x="240" y="-10"/>
      <point x="319" y="-1"/>
      <point x="391" y="51" type="curve"/>
      <point x="430" y="11"/>
      <point x="494" y="-10"/>
      <point x="575" y="-10" type="curve" smooth="yes"/>
      <point x="760" y="-10"/>
      <point x="868" y="94"/>
      <point x="879" y="145" type="curve" smooth="yes"/>
      <point x="881" y="158"/>
      <point x="874" y="167"/>
      <point x="861" y="167" type="curve" smooth="yes"/>
      <point x="672" y="167" type="line" smooth="yes"/>
      <point x="656" y="167"/>
      <point x="651" y="165"/>
      <point x="636" y="153" type="curve" smooth="yes"/>
      <point x="623" y="142"/>
      <point x="615" y="135"/>
      <point x="603" y="135" type="curve" smooth="yes"/>
      <point x="574" y="135"/>
      <point x="569" y="156"/>
      <point x="577" y="196" type="curve" smooth="yes"/>
      <point x="578" y="201" type="line"/>
      <point x="876" y="201" type="line" smooth="yes"/>
      <point x="891" y="201"/>
      <point x="906" y="213"/>
      <point x="909" y="228" type="curve" smooth="yes"/>
      <point x="916" y="258" type="line" smooth="yes"/>
      <point x="947" y="405"/>
      <point x="884" y="530"/>
      <point x="688" y="530" type="curve" smooth="yes"/>
      <point x="629" y="530"/>
      <point x="575" y="516"/>
      <point x="528" y="493" type="curve"/>
      <point x="500" y="517"/>
      <point x="452" y="530"/>
      <point x="378" y="530" type="curve" smooth="yes"/>
      <point x="191" y="530"/>
      <point x="94" y="431"/>
      <point x="84" y="380" type="curve" smooth="yes"/>
      <point x="81" y="367"/>
      <point x="88" y="358"/>
      <point x="101" y="358" type="curve" smooth="yes"/>
      <point x="268" y="358" type="line"/>
      <point x="269" y="358"/>
      <point x="270" y="358"/>
      <point x="271" y="358" type="curve" smooth="yes"/>
      <point x="303" y="358"/>
      <point x="313" y="390"/>
      <point x="347" y="390" type="curve" smooth="yes"/>
      <point x="374" y="390"/>
      <point x="374" y="376"/>
      <point x="366" y="342" type="curve"/>
      <point x="366" y="339" type="line"/>
      <point x="256" y="322" type="line"/>
      <point x="118" y="299"/>
      <point x="21" y="246"/>
      <point x="0" y="149" type="curve" smooth="yes"/>
      <point x="-19" y="59"/>
      <point x="45" y="-10"/>
    </contour>
    <contour>
      <point x="261" y="138" type="curve" smooth="yes"/>
      <point x="236" y="138"/>
      <point x="226" y="151"/>
      <point x="229" y="166" type="curve" smooth="yes"/>
      <point x="232" y="180"/>
      <point x="244" y="195"/>
      <point x="281" y="203" type="curve" smooth="yes"/>
      <point x="343" y="216" type="line"/>
      <point x="342" y="215" type="line"/>
      <point x="331" y="162"/>
      <point x="300" y="138"/>
    </contour>
    <contour>
      <point x="605" y="326" type="line"/>
      <point x="606" y="330" type="line" smooth="yes"/>
      <point x="615" y="371"/>
      <point x="633" y="390"/>
      <point x="659" y="390" type="curve" smooth="yes"/>
      <point x="684" y="390"/>
      <point x="695" y="371"/>
      <point x="686" y="330" type="curve" smooth="yes"/>
      <point x="685" y="326" type="line"/>
    </contour>
  </outline>
</glyph>
<glyph name="Obarred-cy" format="2">
  <advance width="742"/>
  <unicode hex="04E8"/>
  <outline>
    <contour>
      <point x="150" y="289" type="curve" smooth="yes"/>
      <point x="565" y="289" type="line" smooth="yes"/>
      <point x="580" y="289"/>
      <point x="595" y="301"/>
      <point x="598" y="316" type="curve" smooth="yes"/>
      <point x="612" y="384" type="line" smooth="yes"/>
      <point x="615" y="399"/>
      <point x="606" y="411"/>
      <point x="591" y="411" type="curve" smooth="yes"/>
      <point x="176" y="411" type="line" smooth="yes"/>
      <point x="161" y="411"/>
      <point x="146" y="399"/>
      <point x="143" y="384" type="curve" smooth="yes"/>
      <point x="129" y="316" type="line" smooth="yes"/>
      <point x="126" y="301"/>
      <point x="135" y="289"/>
    </contour>
    <contour>
      <point x="294" y="-10" type="curve" smooth="yes"/>
      <point x="490" y="-10"/>
      <point x="640" y="81"/>
      <point x="686" y="260" type="curve" smooth="yes"/>
      <point x="699" y="314"/>
      <point x="713" y="379"/>
      <point x="723" y="436" type="curve" smooth="yes"/>
      <point x="753" y="611"/>
      <point x="644" y="710"/>
      <point x="448" y="710" type="curve" smooth="yes"/>
      <point x="252" y="710"/>
      <point x="99" y="611"/>
      <point x="55" y="436" type="curve" smooth="yes"/>
      <point x="41" y="379"/>
      <point x="27" y="314"/>
      <point x="18" y="260" type="curve" smooth="yes"/>
      <point x="-12" y="81"/>
      <point x="98" y="-10"/>
    </contour>
    <contour>
      <point x="336" y="185" type="curve" smooth="yes"/>
      <point x="292" y="185"/>
      <point x="269" y="210"/>
      <point x="279" y="266" type="curve" smooth="yes"/>
      <point x="289" y="323"/>
      <point x="301" y="379"/>
      <point x="315" y="434" type="curve" smooth="yes"/>
      <point x="329" y="490"/>
      <point x="363" y="515"/>
      <point x="406" y="515" type="curve" smooth="yes"/>
      <point x="449" y="515"/>
      <point x="473" y="490"/>
      <point x="463" y="434" type="curve" smooth="yes"/>
      <point x="453" y="379"/>
      <point x="441" y="323"/>
      <point x="427" y="266" type="curve" smooth="yes"/>
      <point x="413" y="210"/>
      <point x="380" y="185"/>
    </contour>
  </outline>
</glyph>
<glyph name="tsere-hb" format="2">
  <unicode hex="05B5"/>
  <anchor x="-47" y="0" name="_bottom"/>
  <outline>
    <contour>
      <point x="-193" y="-182" type="curve" smooth="yes"/>
      <point x="-120" y="-182" type="line" smooth="yes"/>
      <point x="-107" y="-182"/>
      <point x="-97" y="-173"/>
      <point x="-94" y="-160" type="curve" smooth="yes"/>
      <point x="-80" y="-97" type="line" smooth="yes"/>
      <point x="-78" y="-84"/>
      <point x="-85" y="-75"/>
      <point x="-98" y="-75" type="curve" smooth="yes"/>
      <point x="-171" y="-75" type="line" smooth="yes"/>
      <point x="-184" y="-75"/>
      <point x="-195" y="-84"/>
      <point x="-197" y="-97" type="curve" smooth="yes"/>
      <point x="-211" y="-160" type="line" smooth="yes"/>
      <point x="-214" y="-173"/>
      <point x="-206" y="-182"/>
    </contour>
    <contour>
      <point x="-49" y="-182" type="curve" smooth="yes"/>
      <point x="24" y="-182" type="line" smooth="yes"/>
      <point x="37" y="-182"/>
      <point x="47" y="-173"/>
      <point x="50" y="-160" type="curve" smooth="yes"/>
      <point x="64" y="-97" type="line" smooth="yes"/>
      <point x="66" y="-84"/>
      <point x="59" y="-75"/>
      <point x="46" y="-75" type="curve" smooth="yes"/>
      <point x="-27" y="-75" type="line" smooth="yes"/>
      <point x="-40" y="-75"/>
      <point x="-51" y="-84"/>
      <point x="-53" y="-97" type="curve" smooth="yes"/>
      <point x="-67" y="-160" type="line" smooth="yes"/>
      <point x="-70" y="-173"/>
      <point x="-62" y="-182"/>
    </contour>
  </outline>
</glyph>
<glyph name="bet-hb" format="2">
  <advance width="599"/>
  <unicode hex="05D1"/>
  <guideline x="300" y="320" angle="0"/>
  <guideline x="498"/>
  <guideline x="368" y="395" angle="0"/>
  <guideline x="368" y="571" angle="0"/>
  <anchor x="251" y="0" name="bottom"/>
  <anchor x="-29" y="0" name="bottomleft"/>
  <anchor x="173" y="260" name="center"/>
  <anchor x="362" y="520" name="top"/>
  <anchor x="82" y="520" name="topleft"/>
  <outline>
    <contour>
      <point x="9" y="0" type="curve" smooth="yes"/>
      <point x="500" y="0" type="line" smooth="yes"/>
      <point x="515" y="0"/>
      <point x="530" y="12"/>
      <point x="533" y="27" type="curve" smooth="yes"/>
      <point x="559" y="148" type="line" smooth="yes"/>
      <point x="562" y="163"/>
      <point x="552" y="175"/>
      <point x="537" y="175" type="curve" smooth="yes"/>
      <point x="504" y="175" type="line"/>
      <point x="535" y="318" type="line" smooth="yes"/>
      <point x="576" y="512"/>
      <point x="472" y="571"/>
      <point x="287" y="571" type="curve" smooth="yes"/>
      <point x="141" y="571" type="line" smooth="yes"/>
      <point x="126" y="571"/>
      <point x="111" y="559"/>
      <point x="108" y="544" type="curve" smooth="yes"/>
      <point x="82" y="422" type="line" smooth="yes"/>
      <point x="79" y="407"/>
      <point x="88" y="395"/>
      <point x="103" y="395" type="curve" smooth="yes"/>
      <point x="244" y="395" type="line" smooth="yes"/>
      <point x="293" y="395"/>
      <point x="313" y="370"/>
      <point x="302" y="320" type="curve" smooth="yes"/>
      <point x="271" y="175" type="line"/>
      <point x="46" y="175" type="line" smooth="yes"/>
      <point x="31" y="175"/>
      <point x="17" y="163"/>
      <point x="14" y="148" type="curve" smooth="yes"/>
      <point x="-12" y="27" type="line" smooth="yes"/>
      <point x="-15" y="12"/>
      <point x="-6" y="0"/>
    </contour>
  </outline>
</glyph>
<glyph name="vav-hb" format="2">
  <advance width="327"/>
  <unicode hex="05D5"/>
  <guideline x="300" y="571" angle="0"/>
  <anchor x="113" y="0" name="bottom"/>
  <anchor x="-29" y="0" name="bottomleft"/>
  <anchor x="-30" y="260" name="center"/>
  <anchor x="226" y="520" name="top"/>
  <anchor x="278" y="520" name="topleft"/>
  <outline>
    <contour>
      <point x="25" y="0" type="curve" smooth="yes"/>
      <point x="204" y="0" type="line" smooth="yes"/>
      <point x="219" y="0"/>
      <point x="234" y="12"/>
      <point x="237" y="27" type="curve"/>
      <point x="347" y="544" type="line" smooth="yes"/>
      <point x="350" y="559"/>
      <point x="341" y="571"/>
      <point x="326" y="571" type="curve" smooth="yes"/>
      <point x="147" y="571" type="line" smooth="yes"/>
      <point x="132" y="571"/>
      <point x="117" y="559"/>
      <point x="114" y="544" type="curve" smooth="yes"/>
      <point x="4" y="27" type="line" smooth="yes"/>
      <point x="1" y="12"/>
      <point x="10" y="0"/>
    </contour>
  </outline>
</glyph>
<glyph name="zayin-hb" format="2">
  <advance width="433"/>
  <unicode hex="05D6"/>
  <anchor x="158" y="0" name="bottom"/>
  <anchor x="-16" y="0" name="bottomleft"/>
  <anchor x="36" y="260" name="center"/>
  <anchor x="325" y="520" name="top"/>
  <anchor x="95" y="520" name="topleft"/>
  <outline>
    <contour>
      <point x="75" y="0" type="curve" smooth="yes"/>
      <point x="242" y="0" type="line" smooth="yes"/>
      <point x="255" y="0"/>
      <point x="276" y="9"/>
      <point x="279" y="22" type="curve"/>
      <point x="332" y="272" type="line" smooth="yes"/>
      <point x="350" y="356"/>
      <point x="386" y="423"/>
      <point x="420" y="423" type="curve"/>
      <point x="207" y="423" type="line"/>
      <point x="158" y="423"/>
      <point x="133" y="377"/>
      <point x="114" y="286" type="curve" smooth="yes"/>
      <point x="58" y="22" type="line" smooth="yes"/>
      <point x="55" y="9"/>
      <point x="62" y="0"/>
    </contour>
    <contour>
      <point x="87" y="396" type="curve" smooth="yes"/>
      <point x="416" y="396" type="line" smooth="yes"/>
      <point x="433" y="396"/>
      <point x="446" y="410"/>
      <point x="449" y="423" type="curve" smooth="yes"/>
      <point x="475" y="544" type="line" smooth="yes"/>
      <point x="478" y="559"/>
      <point x="469" y="571"/>
      <point x="454" y="571" type="curve" smooth="yes"/>
      <point x="125" y="571" type="line" smooth="yes"/>
      <point x="110" y="571"/>
      <point x="95" y="559"/>
      <point x="92" y="544" type="curve" smooth="yes"/>
      <point x="66" y="423" type="line" smooth="yes"/>
      <point x="63" y="408"/>
      <point x="72" y="396"/>
    </contour>
  </outline>
</glyph>
<glyph name="finalnun-hb" format="2">
  <advance width="317"/>
  <unicode hex="05DF"/>
  <anchor x="110" y="0" name="bottom"/>
  <anchor x="-29" y="0" name="bottomleft"/>
  <anchor x="165" y="260" name="center"/>
  <anchor x="221" y="520" name="top"/>
  <anchor x="82" y="520" name="topleft"/>
  <outline>
    <contour>
      <point x="-1" y="-124" type="curve" smooth="yes"/>
      <point x="168" y="-124" type="line" smooth="yes"/>
      <point x="183" y="-124"/>
      <point x="197" y="-112"/>
      <point x="201" y="-97" type="curve"/>
      <point x="337" y="544" type="line" smooth="yes"/>
      <point x="340" y="559"/>
      <point x="331" y="571"/>
      <point x="316" y="571" type="curve" smooth="yes"/>
      <point x="147" y="571" type="line" smooth="yes"/>
      <point x="132" y="571"/>
      <point x="117" y="559"/>
      <point x="114" y="544" type="curve" smooth="yes"/>
      <point x="-22" y="-97" type="line" smooth="yes"/>
      <point x="-26" y="-112"/>
      <point x="-16" y="-124"/>
    </contour>
  </outline>
</glyph>
<glyph name="pe-hb" format="2">
  <advance width="597"/>
  <unicode hex="05E4"/>
  <guideline x="310" y="571" angle="0"/>
  <guideline x="310" y="336" angle="0"/>
  <anchor x="231" y="0" name="bottom"/>
  <anchor x="-19" y="0" name="bottomleft"/>
  <anchor x="317" y="250" name="center"/>
  <anchor x="342" y="520" name="top"/>
  <anchor x="92" y="520" name="topleft"/>
  <outline>
    <contour>
      <point x="245" y="386" type="line"/>
      <point x="304" y="386" type="line" smooth="yes"/>
      <point x="353" y="386"/>
      <point x="395" y="361"/>
      <point x="387" y="311" type="curve" smooth="yes"/>
      <point x="384" y="291"/>
      <point x="382" y="280"/>
      <point x="376" y="260" type="curve" smooth="yes"/>
      <point x="363" y="210"/>
      <point x="311" y="185"/>
      <point x="262" y="185" type="curve" smooth="yes"/>
      <point x="65" y="185" type="line" smooth="yes"/>
      <point x="50" y="185"/>
      <point x="35" y="173"/>
      <point x="32" y="158" type="curve" smooth="yes"/>
      <point x="4" y="27" type="line" smooth="yes"/>
      <point x="1" y="12"/>
      <point x="10" y="0"/>
      <point x="25" y="0" type="curve" smooth="yes"/>
      <point x="227" y="0" type="line" smooth="yes"/>
      <point x="432" y="0"/>
      <point x="534" y="109"/>
      <point x="575" y="263" type="curve" smooth="yes"/>
      <point x="580" y="283"/>
      <point x="581" y="288"/>
      <point x="585" y="308" type="curve" smooth="yes"/>
      <point x="609" y="462"/>
      <point x="554" y="571"/>
      <point x="349" y="571" type="curve" smooth="yes"/>
      <point x="136" y="571" type="line" smooth="yes"/>
      <point x="121" y="571"/>
      <point x="109" y="559"/>
      <point x="103" y="544" type="curve" smooth="yes"/>
      <point x="72" y="398" type="line"/>
      <point x="51" y="300"/>
      <point x="100" y="227"/>
      <point x="167" y="220" type="curve" smooth="yes"/>
      <point x="209" y="215" type="line" smooth="yes"/>
      <point x="239" y="212"/>
      <point x="265" y="228"/>
      <point x="270" y="253" type="curve" smooth="yes"/>
      <point x="284" y="322" type="line" smooth="yes"/>
      <point x="286" y="334"/>
      <point x="283" y="347"/>
      <point x="273" y="352" type="curve" smooth="yes"/>
      <point x="254" y="361" type="line" smooth="yes"/>
      <point x="248" y="364"/>
      <point x="244" y="371"/>
      <point x="244" y="380" type="curve"/>
    </contour>
  </outline>
</glyph>
<glyph name="qof-hb" format="2">
  <advance width="696"/>
  <unicode hex="05E7"/>
  <guideline x="300" y="249" angle="0"/>
  <guideline x="1330"/>
  <anchor x="418" y="0" name="bottom"/>
  <anchor x="-29" y="0" name="bottomleft"/>
  <anchor x="354" y="260" name="center"/>
  <anchor x="410" y="520" name="top"/>
  <anchor x="82" y="520" name="topleft"/>
  <outline>
    <contour>
      <point x="-15" y="-191" type="curve" smooth="yes"/>
      <point x="148" y="-191" type="line" smooth="yes"/>
      <point x="163" y="-191"/>
      <point x="177" y="-179"/>
      <point x="180" y="-164" type="curve"/>
      <point x="277" y="289" type="line" smooth="yes"/>
      <point x="280" y="304"/>
      <point x="270" y="316"/>
      <point x="255" y="316" type="curve" smooth="yes"/>
      <point x="92" y="316" type="line" smooth="yes"/>
      <point x="77" y="316"/>
      <point x="63" y="304"/>
      <point x="60" y="289" type="curve" smooth="yes"/>
      <point x="-37" y="-164" type="line" smooth="yes"/>
      <point x="-40" y="-179"/>
      <point x="-30" y="-191"/>
    </contour>
    <contour>
      <point x="298" y="-15" type="curve" smooth="yes"/>
      <point x="340" y="-5" type="line" smooth="yes"/>
      <point x="496" y="32"/>
      <point x="660" y="149"/>
      <point x="698" y="326" type="curve" smooth="yes"/>
      <point x="728" y="471"/>
      <point x="684" y="571"/>
      <point x="508" y="571" type="curve" smooth="yes"/>
      <point x="147" y="571" type="line"/>
      <point x="134" y="571"/>
      <point x="117" y="559"/>
      <point x="114" y="546" type="curve"/>
      <point x="86" y="413" type="line"/>
      <point x="83" y="398"/>
      <point x="93" y="386"/>
      <point x="107" y="386" type="curve"/>
      <point x="418" y="386" type="line"/>
      <point x="468" y="386"/>
      <point x="475" y="365"/>
      <point x="464" y="315" type="curve" smooth="yes"/>
      <point x="450" y="249"/>
      <point x="410" y="218"/>
      <point x="370" y="203" type="curve" smooth="yes"/>
      <point x="341" y="192" type="line" smooth="yes"/>
      <point x="326" y="186"/>
      <point x="310" y="171"/>
      <point x="306" y="156" type="curve" smooth="yes"/>
      <point x="277" y="17" type="line" smooth="yes"/>
      <point x="274" y="2"/>
      <point x="283" y="-18"/>
    </contour>
  </outline>
</glyph>
<glyph name="guilsinglright" format="2">
  <advance width="342"/>
  <unicode hex="203A"/>
  <outline>
    <contour>
      <point x="38" y="52" type="curve" smooth="yes"/>
      <point x="39" y="52"/>
      <point x="46" y="52"/>
      <point x="53" y="57" type="curve" smooth="yes"/>
      <point x="315" y="268" type="line" smooth="yes"/>
      <point x="325" y="275"/>
      <point x="333" y="284"/>
      <point x="335" y="296" type="curve" smooth="yes"/>
      <point x="349" y="362" type="line" smooth="yes"/>
      <point x="352" y="374"/>
      <point x="348" y="383"/>
      <point x="341" y="390" type="curve" smooth="yes"/>
      <point x="169" y="601" type="line" smooth="yes"/>
      <point x="164" y="606"/>
      <point x="157" y="606"/>
      <point x="156" y="606" type="curve" smooth="yes"/>
      <point x="144" y="606"/>
      <point x="132" y="596"/>
      <point x="129" y="584" type="curve" smooth="yes"/>
      <point x="99" y="443" type="line" smooth="yes"/>
      <point x="94" y="420"/>
      <point x="98" y="411"/>
      <point x="108" y="398" type="curve" smooth="yes"/>
      <point x="162" y="329" type="line"/>
      <point x="78" y="260" type="line" smooth="yes"/>
      <point x="63" y="247"/>
      <point x="56" y="238"/>
      <point x="51" y="215" type="curve" smooth="yes"/>
      <point x="21" y="74" type="line" smooth="yes"/>
      <point x="18" y="62"/>
      <point x="26" y="52"/>
    </contour>
  </outline>
</glyph>
<glyph name="fiveinferior" format="2">
  <advance width="365"/>
  <unicode hex="2085"/>
  <guideline x="350" y="978" angle="0"/>
  <guideline x="350" y="-170" angle="0"/>
  <outline>
    <contour>
      <point x="95" y="-175" type="curve" smooth="yes"/>
      <point x="201" y="-175"/>
      <point x="267" y="-118"/>
      <point x="281" y="-51" type="curve" smooth="yes"/>
      <point x="295" y="15"/>
      <point x="244" y="56"/>
      <point x="182" y="56" type="curve" smooth="yes"/>
      <point x="149" y="56"/>
      <point x="132" y="51"/>
      <point x="111" y="39" type="curve"/>
      <point x="122" y="72" type="line"/>
      <point x="261" y="72" type="line" smooth="yes"/>
      <point x="274" y="72"/>
      <point x="284" y="81"/>
      <point x="287" y="94" type="curve" smooth="yes"/>
      <point x="301" y="158" type="line" smooth="yes"/>
      <point x="304" y="171"/>
      <point x="296" y="180"/>
      <point x="283" y="180" type="curve" smooth="yes"/>
      <point x="71" y="180" type="line"/>
      <point x="57" y="179"/>
      <point x="45" y="167"/>
      <point x="41" y="153" type="curve" smooth="yes"/>
      <point x="-9" y="-1" type="line" smooth="yes"/>
      <point x="-13" y="-15"/>
      <point x="-7" y="-27"/>
      <point x="7" y="-27" type="curve" smooth="yes"/>
      <point x="98" y="-27" type="line" smooth="yes"/>
      <point x="105" y="-27"/>
      <point x="111" y="-16"/>
      <point x="129" y="-16" type="curve" smooth="yes"/>
      <point x="147" y="-16"/>
      <point x="152" y="-32"/>
      <point x="149" y="-46" type="curve" smooth="yes"/>
      <point x="146" y="-64"/>
      <point x="132" y="-73"/>
      <point x="117" y="-73" type="curve" smooth="yes"/>
      <point x="87" y="-73"/>
      <point x="95" y="-52"/>
      <point x="77" y="-52" type="curve"/>
      <point x="69" y="-52"/>
      <point x="60" y="-52"/>
      <point x="52" y="-52" type="curve"/>
      <point x="-22" y="-52" type="line" smooth="yes"/>
      <point x="-28" y="-52"/>
      <point x="-41" y="-58"/>
      <point x="-43" y="-71" type="curve" smooth="yes"/>
      <point x="-46" y="-102"/>
      <point x="-34" y="-175"/>
    </contour>
  </outline>
</glyph>
<glyph name="greaterequal" format="2">
  <advance width="556"/>
  <unicode hex="2265"/>
  <guideline x="861"/>
  <guideline x="400"/>
  <outline>
    <contour>
      <point x="67" y="194" type="curve" smooth="yes"/>
      <point x="69" y="194"/>
      <point x="74" y="195"/>
      <point x="79" y="197" type="curve" smooth="yes"/>
      <point x="517" y="377" type="line" smooth="yes"/>
      <point x="539" y="386"/>
      <point x="551" y="398"/>
      <point x="555" y="419" type="curve" smooth="yes"/>
      <point x="564" y="461" type="line"/>
      <point x="569" y="482"/>
      <point x="562" y="494"/>
      <point x="544" y="503" type="curve" smooth="yes"/>
      <point x="182" y="683" type="line" smooth="yes"/>
      <point x="178" y="685"/>
      <point x="174" y="686"/>
      <point x="172" y="686" type="curve" smooth="yes"/>
      <point x="160" y="686"/>
      <point x="149" y="677"/>
      <point x="147" y="665" type="curve" smooth="yes"/>
      <point x="121" y="543" type="line" smooth="yes"/>
      <point x="115" y="517"/>
      <point x="131" y="503"/>
      <point x="143" y="499" type="curve" smooth="yes"/>
      <point x="306" y="440" type="line"/>
      <point x="118" y="380" type="line" smooth="yes"/>
      <point x="104" y="375"/>
      <point x="82" y="363"/>
      <point x="77" y="337" type="curve" smooth="yes"/>
      <point x="51" y="215" type="line" smooth="yes"/>
      <point x="48" y="203"/>
      <point x="55" y="194"/>
    </contour>
    <contour>
      <point x="32" y="0" type="curve" smooth="yes"/>
      <point x="439" y="0" type="line" smooth="yes"/>
      <point x="454" y="0"/>
      <point x="469" y="12"/>
      <point x="472" y="27" type="curve" smooth="yes"/>
      <point x="495" y="136" type="line" smooth="yes"/>
      <point x="498" y="151"/>
      <point x="489" y="163"/>
      <point x="474" y="163" type="curve" smooth="yes"/>
      <point x="67" y="163" type="line"/>
      <point x="52" y="163"/>
      <point x="37" y="151"/>
      <point x="34" y="136" type="curve" smooth="yes"/>
      <point x="11" y="27" type="line" smooth="yes"/>
      <point x="8" y="12"/>
      <point x="17" y="0"/>
    </contour>
  </outline>
</glyph>
<glyph name="asciitilde.case" format="2">
  <advance width="548"/>
  <guideline x="350" y="300" angle="0"/>
  <outline>
    <contour>
      <point x="74" y="241" type="curve"/>
      <point x="84" y="242"/>
      <point x="90" y="246"/>
      <point x="96" y="250" type="curve" smooth="yes"/>
      <point x="108" y="259"/>
      <point x="138" y="276"/>
      <point x="169" y="276" type="curve" smooth="yes"/>
      <point x="262" y="276"/>
      <point x="292" y="234"/>
      <point x="391" y="234" type="curve" smooth="yes"/>
      <point x="459" y="234"/>
      <point x="509" y="270"/>
      <point x="518" y="314" type="curve" smooth="yes"/>
      <point x="541" y="422" type="line" smooth="yes"/>
      <point x="546" y="447"/>
      <point x="546" y="459"/>
      <point x="527" y="459" type="curve"/>
      <point x="518" y="458"/>
      <point x="511" y="454"/>
      <point x="505" y="450" type="curve" smooth="yes"/>
      <point x="493" y="441"/>
      <point x="463" y="424"/>
      <point x="432" y="424" type="curve" smooth="yes"/>
      <point x="339" y="424"/>
      <point x="309" y="466"/>
      <point x="210" y="466" type="curve" smooth="yes"/>
      <point x="142" y="466"/>
      <point x="93" y="430"/>
      <point x="83" y="386" type="curve" smooth="yes"/>
      <point x="60" y="278" type="line" smooth="yes"/>
      <point x="55" y="253"/>
      <point x="55" y="241"/>
    </contour>
  </outline>
</glyph>
<glyph name="descender-cy.case" format="2">
  <advance width="372"/>
  <anchor x="-9" y="0" name="_bottomright"/>
  <outline>
    <contour>
      <point x="61" y="-140" type="curve" smooth="yes"/>
      <point x="257" y="-140" type="line" smooth="yes"/>
      <point x="272" y="-140"/>
      <point x="286" y="-128"/>
      <point x="289" y="-113" type="curve" smooth="yes"/>
      <point x="355" y="193" type="line" smooth="yes"/>
      <point x="358" y="208"/>
      <point x="348" y="220"/>
      <point x="333" y="220" type="curve" smooth="yes"/>
      <point x="38" y="220" type="line"/>
      <point x="41" y="0" type="line"/>
      <point x="63" y="0" type="line"/>
      <point x="39" y="-113" type="line" smooth="yes"/>
      <point x="36" y="-128"/>
      <point x="46" y="-140"/>
    </contour>
  </outline>
</glyph>
<glyph name="equal.case" format="2">
  <advance width="563"/>
  <outline>
    <contour>
      <point x="46" y="140" type="curve" smooth="yes"/>
      <point x="451" y="140" type="line" smooth="yes"/>
      <point x="466" y="140"/>
      <point x="480" y="152"/>
      <point x="483" y="167" type="curve" smooth="yes"/>
      <point x="508" y="283" type="line" smooth="yes"/>
      <point x="511" y="298"/>
      <point x="502" y="310"/>
      <point x="487" y="310" type="curve" smooth="yes"/>
      <point x="82" y="310" type="line" smooth="yes"/>
      <point x="67" y="310"/>
      <point x="52" y="298"/>
      <point x="49" y="283" type="curve" smooth="yes"/>
      <point x="24" y="167" type="line" smooth="yes"/>
      <point x="21" y="152"/>
      <point x="31" y="140"/>
    </contour>
    <contour>
      <point x="99" y="390" type="curve" smooth="yes"/>
      <point x="504" y="390" type="line" smooth="yes"/>
      <point x="519" y="390"/>
      <point x="533" y="402"/>
      <point x="537" y="417" type="curve" smooth="yes"/>
      <point x="561" y="533" type="line" smooth="yes"/>
      <point x="564" y="548"/>
      <point x="555" y="560"/>
      <point x="540" y="560" type="curve" smooth="yes"/>
      <point x="135" y="560" type="line" smooth="yes"/>
      <point x="120" y="560"/>
      <point x="105" y="548"/>
      <point x="102" y="533" type="curve" smooth="yes"/>
      <point x="78" y="417" type="line" smooth="yes"/>
      <point x="74" y="402"/>
      <point x="84" y="390"/>
    </contour>
  </outline>
</glyph>
<glyph name="euro.BRACKET.125" format="2">
  <advance width="822"/>
  <outline>
    <contour>
      <point x="402" y="-10" type="curve" smooth="yes"/>
      <point x="602" y="-10"/>
      <point x="738" y="74"/>
      <point x="773" y="236" type="curve" smooth="yes"/>
      <point x="775" y="248"/>
      <point x="767" y="258"/>
      <point x="755" y="258" type="curve" smooth="yes"/>
      <point x="551" y="258" type="line" smooth="yes"/>
      <point x="529" y="258"/>
      <point x="518" y="251"/>
      <point x="504" y="229" type="curve" smooth="yes"/>
      <point x="484" y="197"/>
      <point x="458" y="185"/>
      <point x="424" y="185" type="curve" smooth="yes"/>
      <point x="374" y="185"/>
      <point x="349" y="211"/>
      <point x="374" y="293" type="curve"/>
      <point x="398" y="412" type="line"/>
      <point x="410" y="491"/>
      <point x="445" y="515"/>
      <point x="494" y="515" type="curve" smooth="yes"/>
      <point x="528" y="515"/>
      <point x="549" y="503"/>
      <point x="556" y="471" type="curve" smooth="yes"/>
      <point x="560" y="449"/>
      <point x="568" y="442"/>
      <point x="590" y="442" type="curve" smooth="yes"/>
      <point x="794" y="442" type="line" smooth="yes"/>
      <point x="806" y="442"/>
      <point x="819" y="452"/>
      <point x="821" y="464" type="curve" smooth="yes"/>
      <point x="856" y="626"/>
      <point x="685" y="710"/>
      <point x="515" y="710" type="curve" smooth="yes"/>
      <point x="309" y="710"/>
      <point x="184" y="629"/>
      <point x="140" y="425" type="curve" smooth="yes"/>
      <point x="113" y="289" type="line" smooth="yes"/>
      <point x="55" y="75"/>
      <point x="213" y="-10"/>
    </contour>
    <contour>
      <point x="47" y="266" type="curve" smooth="yes"/>
      <point x="459" y="266" type="line" smooth="yes"/>
      <point x="474" y="266"/>
      <point x="489" y="278"/>
      <point x="492" y="293" type="curve" smooth="yes"/>
      <point x="516" y="409" type="line"/>
      <point x="520" y="424"/>
      <point x="510" y="436"/>
      <point x="495" y="436" type="curve" smooth="yes"/>
      <point x="83" y="436" type="line" smooth="yes"/>
      <point x="68" y="436"/>
      <point x="54" y="424"/>
      <point x="50" y="409" type="curve"/>
      <point x="26" y="293" type="line" smooth="yes"/>
      <point x="23" y="278"/>
      <point x="32" y="266"/>
    </contour>
  </outline>
</glyph>
